<?xml version="1.0" encoding="UTF-8"?>
<svg xmlns="http://www.w3.org/2000/svg" style="display:none">
  <symbol id="icon-bright-play" viewBox="0 -960 960 960">
    <path d="m380-300 280-180-280-180v360ZM480-80q-83 0-156-31.5T197-197q-54-54-85.5-127T80-480q0-83 31.5-156T197-763q54-54 127-85.5T480-880q83 0 156 31.5T763-763q54 54 85.5 127T880-480q0 83-31.5 156T763-197q-54 54-127 85.5T480-80Zm0-80q134 0 227-93t93-227q0-134-93-227t-227-93q-134 0-227 93t-93 227q0 134 93 227t227 93Zm0-320Z"/>
  </symbol>
  <symbol id="icon-bright-list" viewBox="0 -960 960 960">
    <path d="M280-600v-80h560v80H280Zm0 160v-80h560v80H280Zm0 160v-80h560v80H280ZM160-600q-17 0-28.5-11.5T120-640q0-17 11.5-28.5T160-680q17 0 28.5 11.5T200-640q0 17-11.5 28.5T160-600Zm0 160q-17 0-28.5-11.5T120-480q0-17 11.5-28.5T160-520q17 0 28.5 11.5T200-480q0 17-11.5 28.5T160-440Zm0 160q-17 0-28.5-11.5T120-320q0-17 11.5-28.5T160-360q17 0 28.5 11.5T200-320q0 17-11.5 28.5T160-280Z"/>
  </symbol>
  <symbol id="icon-bright-create-events" viewBox="0 -960 960 960">
    <path d="M680-80v-120H560v-80h120v-120h80v120h120v80H760v120h-80Zm-480-80q-33 0-56.5-23.5T120-240v-480q0-33 23.5-56.5T200-800h40v-80h80v80h240v-80h80v80h40q33 0 56.5 23.5T760-720v244q-20-3-40-3t-40 3v-84H200v320h280q0 20 3 40t11 40H200Zm0-480h480v-80H200v80Zm0 0v-80 80Z"/>
  </symbol>
  <symbol id="icon-bright-antenna" viewBox="0 -960 960 960">
    <path d="M440-80v-331q-18-11-29-28.5T400-480q0-33 23.5-56.5T480-560q33 0 56.5 23.5T560-480q0 23-11 41t-29 28v331h-80ZM204-190q-57-55-90.5-129.5T80-480q0-83 31.5-156T197-763q54-54 127-85.5T480-880q83 0 156 31.5T763-763q54 54 85.5 127T880-480q0 86-33.5 161T756-190l-56-56q46-44 73-104.5T800-480q0-134-93-227t-227-93q-134 0-227 93t-93 227q0 69 27 129t74 104l-57 57Zm113-113q-35-33-56-78.5T240-480q0-100 70-170t170-70q100 0 170 70t70 170q0 53-21 99t-56 78l-57-57q25-23 39.5-54t14.5-66q0-66-47-113t-113-47q-66 0-113 47t-47 113q0 36 14.5 66.5T374-360l-57 57Z"/>
  </symbol>
  <symbol id="icon-bright-comment" viewBox="0 -960 960 960">
    <path d="M240-400h480v-80H240v80Zm0-120h480v-80H240v80Zm0-120h480v-80H240v80ZM880-80 720-240H160q-33 0-56.5-23.5T80-320v-480q0-33 23.5-56.5T160-880h640q33 0 56.5 23.5T880-800v720ZM160-320h594l46 45v-525H160v480Zm0 0v-480 480Z"/>
  </symbol>
  <symbol id="icon-bright-prepared" viewBox="0 0 24 24">
    <path d="M0 0h24v24H0V0z" fill="none"/>
    <path d="M12 2C6.48 2 2 6.48 2 12s4.48 10 10 10 10-4.48 10-10S17.52 2 12 2zm0 18c-4.41 0-8-3.59-8-8s3.59-8 8-8 8 3.59 8 8-3.59 8-8 8zm4.59-12.42L10 14.17l-2.59-2.58L6 13l4 4 8-8z"/>
  </symbol>
  <symbol id="icon-bright-menu" viewBox="0 -960 960 960">
    <path d="M120-240v-80h720v80H120Zm0-200v-80h720v80H120Zm0-200v-80h720v80H120Z"/>
  </symbol>
  <symbol id="icon-bright-deleted" viewBox="0 -960 960 960">
    <path d="M280-120q-33 0-56.5-23.5T200-200v-520h-40v-80h200v-40h240v40h200v80h-40v520q0 33-23.5 56.5T680-120H280Zm400-600H280v520h400v-520ZM360-280h80v-360h-80v360Zm160 0h80v-360h-80v360ZM280-720v520-520Z"/>
  </symbol>
  <symbol id="icon-bright-notify" viewBox="0 -960 960 960">
    <path d="M480-220q25 0 42.5-17.5T540-280H420q0 25 17.5 42.5T480-220ZM280-320h400v-80h-40v-104q0-61-31.5-111.5T520-680v-20q0-17-11.5-28.5T480-740q-17 0-28.5 11.5T440-700v20q-57 14-88.5 64.5T320-504v104h-40v80Zm120-80v-120q0-33 23.5-56.5T480-600q33 0 56.5 23.5T560-520v120H400Zm80 320q-83 0-156-31.5T197-197q-54-54-85.5-127T80-480q0-83 31.5-156T197-763q54-54 127-85.5T480-880q83 0 156 31.5T763-763q54 54 85.5 127T880-480q0 83-31.5 156T763-197q-54 54-127 85.5T480-80Zm0-80q134 0 227-93t93-227q0-134-93-227t-227-93q-134 0-227 93t-93 227q0 134 93 227t227 93Zm0-320Z"/>
  </symbol>
  <symbol id="icon-bright-feed" viewBox="0 -960 960 960">
    <path d="M200-120q-33 0-56.5-23.5T120-200q0-33 23.5-56.5T200-280q33 0 56.5 23.5T280-200q0 33-23.5 56.5T200-120Zm480 0q0-117-44-218.5T516-516q-76-76-177.5-120T120-680v-120q142 0 265 53t216 146q93 93 146 216t53 265H680Zm-240 0q0-67-25-124.5T346-346q-44-44-101.5-69T120-440v-120q92 0 171.5 34.5T431-431q60 60 94.5 139.5T560-120H440Z"/>
  </symbol>
  <symbol id="icon-bright-schedule" viewBox="0 -960 960 960">
    <path d="m612-292 56-56-148-148v-184h-80v216l172 172ZM480-80q-83 0-156-31.5T197-197q-54-54-85.5-127T80-480q0-83 31.5-156T197-763q54-54 127-85.5T480-880q83 0 156 31.5T763-763q54 54 85.5 127T880-480q0 83-31.5 156T763-197q-54 54-127 85.5T480-80Zm0-400Zm0 320q133 0 226.5-93.5T800-480q0-133-93.5-226.5T480-800q-133 0-226.5 93.5T160-480q0 133 93.5 226.5T480-160Z"/>
  </symbol>
  <symbol id="icon-bright-toggle-off" viewBox="0 -960 960 960">
    <path d="M280-240q-100 0-170-70T40-480q0-100 70-170t170-70h400q100 0 170 70t70 170q0 100-70 170t-170 70H280Zm0-80h400q66 0 113-47t47-113q0-66-47-113t-113-47H280q-66 0-113 47t-47 113q0 66 47 113t113 47Zm0-40q50 0 85-35t35-85q0-50-35-85t-85-35q-50 0-85 35t-35 85q0 50 35 85t85 35Zm200-120Z"/>
  </symbol>
  <symbol id="icon-bright-archive" viewBox="0 0 24 24">
    <path d="M0 0h24v24H0V0z" fill="none"/>
    <path d="M20.54 5.23l-1.39-1.68C18.88 3.21 18.47 3 18 3H6c-.47 0-.88.21-1.16.55L3.46 5.23C3.17 5.57 3 6.02 3 6.5V19c0 1.1.9 2 2 2h14c1.1 0 2-.9 2-2V6.5c0-.48-.17-.93-.46-1.27zM6.24 5h11.52l.81.97H5.44l.8-.97zM5 19V8h14v11H5zm8.45-9h-2.9v3H8l4 4 4-4h-2.55z"/>
  </symbol>
  <symbol id="icon-bright-move" viewBox="0 -960 960 960">
    <path d="m280-120-56-56 63-66q-106-12-176.5-91.5T40-520q0-117 81.5-198.5T320-800h120v80H320q-83 0-141.5 58.5T120-520q0 72 46 127t117 69l-59-59 56-57 160 160-160 160Zm240-40v-280h360v280H520Zm0-360v-280h360v280H520Zm80-80h200v-120H600v120Z"/>
  </symbol>
  <symbol id="icon-bright-globe" viewBox="0 -960 960 960">
    <path d="M480-80q-83 0-156-31.5T197-197q-54-54-85.5-127T80-480q0-83 31.5-156T197-763q54-54 127-85.5T480-880q83 0 156 31.5T763-763q54 54 85.5 127T880-480q0 83-31.5 156T763-197q-54 54-127 85.5T480-80Zm0-80q134 0 227-93t93-227q0-7-.5-14.5T799-507q-5 29-27 48t-52 19h-80q-33 0-56.5-23.5T560-520v-40H400v-80q0-33 23.5-56.5T480-720h40q0-23 12.5-40.5T563-789q-20-5-40.5-8t-42.5-3q-134 0-227 93t-93 227h200q66 0 113 47t47 113v40H400v110q20 5 39.5 7.5T480-160Z"/>
  </symbol>
  <symbol id="icon-bright-documents" viewBox="0 -960 960 960">
    <path d="M130-189 81-546q-5-32 15.5-58t52.5-31l61 435 283-40h267q-8 21-24.5 35.5T695-187l-477 66q-33 5-58-15t-30-53Zm190-127q-33 0-56.5-23.5T240-396v-364q0-33 23.5-56.5T320-840h480q33 0 56.5 23.5T880-760v364q0 33-23.5 56.5T800-316H320Zm0-80h480v-364H320v364Zm0 0v-364 364ZM210-200Zm190-400h320v-80H400v80Zm0 120h200v-80H400v80Z"/>
  </symbol>
  <symbol id="icon-bright-group" viewBox="0 -960 960 960">
    <path d="M40-160v-112q0-34 17.5-62.5T104-378q62-31 126-46.5T360-440q66 0 130 15.5T616-378q29 15 46.5 43.5T680-272v112H40Zm720 0v-120q0-44-24.5-84.5T666-434q51 6 96 20.5t84 35.5q36 20 55 44.5t19 53.5v120H760ZM360-480q-66 0-113-47t-47-113q0-66 47-113t113-47q66 0 113 47t47 113q0 66-47 113t-113 47Zm400-160q0 66-47 113t-113 47q-11 0-28-2.5t-28-5.5q27-32 41.5-71t14.5-81q0-42-14.5-81T544-792q14-5 28-6.5t28-1.5q66 0 113 47t47 113ZM120-240h480v-32q0-11-5.5-20T580-306q-54-27-109-40.5T360-360q-56 0-111 13.5T140-306q-9 5-14.5 14t-5.5 20v32Zm240-320q33 0 56.5-23.5T440-640q0-33-23.5-56.5T360-720q-33 0-56.5 23.5T280-640q0 33 23.5 56.5T360-560Zm0 320Zm0-400Z"/>
  </symbol>
  <symbol id="icon-bright-more" viewBox="0 -960 960 960">
    <path d="M480-160q-33 0-56.5-23.5T400-240q0-33 23.5-56.5T480-320q33 0 56.5 23.5T560-240q0 33-23.5 56.5T480-160Zm0-240q-33 0-56.5-23.5T400-480q0-33 23.5-56.5T480-560q33 0 56.5 23.5T560-480q0 33-23.5 56.5T480-400Zm0-240q-33 0-56.5-23.5T400-720q0-33 23.5-56.5T480-800q33 0 56.5 23.5T560-720q0 33-23.5 56.5T480-640Z"/>
  </symbol>
  <symbol id="icon-bright-library-music" viewBox="0 -960 960 960">
    <path d="M500-360q42 0 71-29t29-71v-220h120v-80H560v220q-13-10-28-15t-32-5q-42 0-71 29t-29 71q0 42 29 71t71 29ZM320-240q-33 0-56.5-23.5T240-320v-480q0-33 23.5-56.5T320-880h480q33 0 56.5 23.5T880-800v480q0 33-23.5 56.5T800-240H320Zm0-80h480v-480H320v480ZM160-80q-33 0-56.5-23.5T80-160v-560h80v560h560v80H160Zm160-720v480-480Z"/>
  </symbol>
  <symbol id="icon-bright-public-off" viewBox="0 -960 960 960">
    <path d="M819-28 701-146q-48 32-103.5 49T480-80q-83 0-156-31.5T197-197q-54-54-85.5-127T80-480q0-62 17-117.5T146-701L27-820l57-57L876-85l-57 57ZM440-162v-78q-33 0-56.5-23.5T360-320v-40L168-552q-3 18-5.5 36t-2.5 36q0 121 79.5 212T440-162Zm374-99-58-58q21-37 32.5-77.5T800-480q0-98-54.5-179T600-776v16q0 33-23.5 56.5T520-680h-80v45L261-814q48-31 103-48.5T480-880q83 0 156 31.5T763-763q54 54 85.5 127T880-480q0 61-17.5 116T814-261Z"/>
  </symbol>
  <symbol id="icon-bright-delete" viewBox="0 -960 960 960">
    <path d="M280-120q-33 0-56.5-23.5T200-200v-520h-40v-80h200v-40h240v40h200v80h-40v520q0 33-23.5 56.5T680-120H280Zm400-600H280v520h400v-520ZM360-280h80v-360h-80v360Zm160 0h80v-360h-80v360ZM280-720v520-520Z"/>
  </symbol>
  <symbol id="icon-bright-silent" viewBox="0 -960 960 960">
    <path d="m616-320-56-56 104-104-104-104 56-56 104 104 104-104 56 56-104 104 104 104-56 56-104-104-104 104Zm-496-40v-240h160l200-200v640L280-360H120Zm280-246-86 86H200v80h114l86 86v-252ZM300-480Z"/>
  </symbol>
  <symbol id="icon-bright-replay" viewBox="0 0 24 24">
    <g>
      <rect fill="none" height="24" width="24"/>
      <rect fill="none" height="24" width="24"/>
      <rect fill="none" height="24" width="24"/>
    </g>
    <g>
      <g/>
      <path d="M12,5V1L7,6l5,5V7c3.31,0,6,2.69,6,6s-2.69,6-6,6s-6-2.69-6-6H4c0,4.42,3.58,8,8,8s8-3.58,8-8S16.42,5,12,5z"/>
    </g>
  </symbol>
  <symbol id="icon-bright-interpreter" viewBox="0 -960 960 960">
    <path d="M820-300q-25 0-42.5-17.5T760-360v-100q0-25 17.5-42.5T820-520q25 0 42.5 17.5T880-460v100q0 25-17.5 42.5T820-300Zm-20 140v-62q-51-8-85.5-46.5T680-360h40q0 42 29 71t71 29q42 0 71-29t29-71h40q0 53-34.5 91.5T840-222v62h-40ZM360-480q-66 0-113-47t-47-113q0-66 47-113t113-47q14 0 27.5 2t26.5 7q-26 31-40 69.5T360-640q0 43 14 81.5t40 69.5q-13 5-26.5 7t-27.5 2ZM40-160v-111q0-34 17-63t47-44q38-20 82.5-34.5T284-435q-40 28-62 71t-22 93v111H40Zm560-320q-66 0-113-47t-47-113q0-66 47-113t113-47q66 0 113 47t47 113q0 66-47 113t-113 47Zm0-80q33 0 56.5-23.5T680-640q0-33-23.5-56.5T600-720q-33 0-56.5 23.5T520-640q0 33 23.5 56.5T600-560ZM280-160v-111q0-34 17-63t47-44q51-26 115.5-44T600-440q12 0 23.5.5T646-438q-10 18-16.5 37.5T621-360h-21q-72 0-127.5 18T381-306q-10 5-15.5 14.5T360-271v31h287q15 26 37 46t49 34H280Zm320-480Zm0 400Z"/>
  </symbol>
  <symbol id="icon-bright-search" viewBox="0 -960 960 960">
    <path d="M784-120 532-372q-30 24-69 38t-83 14q-109 0-184.5-75.5T120-580q0-109 75.5-184.5T380-840q109 0 184.5 75.5T640-580q0 44-14 83t-38 69l252 252-56 56ZM380-400q75 0 127.5-52.5T560-580q0-75-52.5-127.5T380-760q-75 0-127.5 52.5T200-580q0 75 52.5 127.5T380-400Z"/>
  </symbol>
  <symbol id="icon-bright-bolt" viewBox="0 -960 960 960">
    <path d="m422-232 207-248H469l29-227-185 267h139l-30 208ZM320-80l40-280H160l360-520h80l-40 320h240L400-80h-80Zm151-390Z"/>
  </symbol>
  <symbol id="icon-bright-logout" viewBox="0 -960 960 960">
    <path d="M200-120q-33 0-56.5-23.5T120-200v-560q0-33 23.5-56.5T200-840h280v80H200v560h280v80H200Zm440-160-55-58 102-102H360v-80h327L585-622l55-58 200 200-200 200Z"/>
  </symbol>
  <symbol id="icon-bright-arrow-up" viewBox="0 -960 960 960">
    <path d="M440-160v-487L216-423l-56-57 320-320 320 320-56 57-224-224v487h-80Z"/>
  </symbol>
  <symbol id="icon-bright-edit" viewBox="0 -960 960 960">
    <path d="M200-200h57l391-391-57-57-391 391v57Zm-80 80v-170l528-527q12-11 26.5-17t30.5-6q16 0 31 6t26 18l55 56q12 11 17.5 26t5.5 30q0 16-5.5 30.5T817-647L290-120H120Zm640-584-56-56 56 56Zm-141 85-28-29 57 57-29-28Z"/>
  </symbol>
  <symbol id="icon-bright-history" viewBox="0 -960 960 960">
    <path d="M480-120q-138 0-240.5-91.5T122-440h82q14 104 92.5 172T480-200q117 0 198.5-81.5T760-480q0-117-81.5-198.5T480-760q-69 0-129 32t-101 88h110v80H120v-240h80v94q51-64 124.5-99T480-840q75 0 140.5 28.5t114 77q48.5 48.5 77 114T840-480q0 75-28.5 140.5t-77 114q-48.5 48.5-114 77T480-120Zm112-192L440-464v-216h80v184l128 128-56 56Z"/>
  </symbol>
  <symbol id="icon-bright-public" viewBox="0 -960 960 960">
    <path d="M480-80q-83 0-156-31.5T197-197q-54-54-85.5-127T80-480q0-83 31.5-156T197-763q54-54 127-85.5T480-880q83 0 156 31.5T763-763q54 54 85.5 127T880-480q0 83-31.5 156T763-197q-54 54-127 85.5T480-80Zm-40-82v-78q-33 0-56.5-23.5T360-320v-40L168-552q-3 18-5.5 36t-2.5 36q0 121 79.5 212T440-162Zm276-102q41-45 62.5-100.5T800-480q0-98-54.5-179T600-776v16q0 33-23.5 56.5T520-680h-80v80q0 17-11.5 28.5T400-560h-80v80h240q17 0 28.5 11.5T600-440v120h40q26 0 47 15.5t29 40.5Z"/>
  </symbol>
  <symbol id="icon-bright-download" viewBox="0 -960 960 960">
    <path d="M480-320 280-520l56-58 104 104v-326h80v326l104-104 56 58-200 200ZM240-160q-33 0-56.5-23.5T160-240v-120h80v120h480v-120h80v120q0 33-23.5 56.5T720-160H240Z"/>
  </symbol>
  <symbol id="icon-bright-radio" viewBox="0 -960 960 960">
    <path d="M160-80q-33 0-56.5-23.5T80-160v-480q0-25 13.5-45t36.5-29l506-206 26 66-330 134h468q33 0 56.5 23.5T880-640v480q0 33-23.5 56.5T800-80H160Zm0-80h640v-280H160v280Zm160-40q42 0 71-29t29-71q0-42-29-71t-71-29q-42 0-71 29t-29 71q0 42 29 71t71 29ZM160-520h480v-80h80v80h80v-120H160v120Zm0 360v-280 280Z"/>
  </symbol>
  <symbol id="icon-bright-dataset" viewBox="0 -960 960 960">
    <path d="M280-280h160v-160H280v160Zm240 0h160v-160H520v160ZM280-520h160v-160H280v160Zm240 0h160v-160H520v160ZM200-120q-33 0-56.5-23.5T120-200v-560q0-33 23.5-56.5T200-840h560q33 0 56.5 23.5T840-760v560q0 33-23.5 56.5T760-120H200Zm0-80h560v-560H200v560Zm0-560v560-560Z"/>
  </symbol>
  <symbol id="icon-bright-sync" viewBox="0 -960 960 960">
    <path d="M280-120 80-320l200-200 57 56-104 104h607v80H233l104 104-57 56Zm400-320-57-56 104-104H120v-80h607L623-784l57-56 200 200-200 200Z"/>
  </symbol>
  <symbol id="icon-bright-play-circle" viewBox="0 -960 960 960">
    <path d="m380-300 280-180-280-180v360ZM480-80q-83 0-156-31.5T197-197q-54-54-85.5-127T80-480q0-83 31.5-156T197-763q54-54 127-85.5T480-880q83 0 156 31.5T763-763q54 54 85.5 127T880-480q0 83-31.5 156T763-197q-54 54-127 85.5T480-80Zm0-80q134 0 227-93t93-227q0-134-93-227t-227-93q-134 0-227 93t-93 227q0 134 93 227t227 93Zm0-320Z"/>
  </symbol>
  <symbol id="icon-bright-arrow-down" viewBox="0 -960 960 960">
    <path d="M480-240 240-480l56-56 144 144v-368h80v368l144-144 56 56-240 240Z"/>
  </symbol>
  <symbol id="icon-bright-image" viewBox="0 -960 960 960">
    <path d="M200-120q-33 0-56.5-23.5T120-200v-560q0-33 23.5-56.5T200-840h560q33 0 56.5 23.5T840-760v560q0 33-23.5 56.5T760-120H200Zm0-80h560v-560H200v560Zm40-80h480L570-480 450-320l-90-120-120 160Zm-40 80v-560 560Z"/>
  </symbol>
  <symbol id="icon-bright-zoom-in" viewBox="0 -960 960 960">
    <path d="M784-120 532-372q-30 24-69 38t-83 14q-109 0-184.5-75.5T120-580q0-109 75.5-184.5T380-840q109 0 184.5 75.5T640-580q0 44-14 83t-38 69l252 252-56 56ZM380-400q75 0 127.5-52.5T560-580q0-75-52.5-127.5T380-760q-75 0-127.5 52.5T200-580q0 75 52.5 127.5T380-400Zm-40-60v-80h-80v-80h80v-80h80v80h80v80h-80v80h-80Z"/>
  </symbol>
  <symbol id="icon-bright-rule" viewBox="0 -960 960 960">
    <path d="m576-160-56-56 104-104-104-104 56-56 104 104 104-104 56 56-104 104 104 104-56 56-104-104-104 104Zm79-360L513-662l56-56 85 85 170-170 56 57-225 226ZM80-280v-80h360v80H80Zm0-320v-80h360v80H80Z"/>
  </symbol>
  <symbol id="icon-bright-close" viewBox="0 -960 960 960">
    <path d="m256-200-56-56 224-224-224-224 56-56 224 224 224-224 56 56-224 224 224 224-56 56-224-224-224 224Z"/>
  </symbol>
  <symbol id="icon-bright-cancel" viewBox="0 -960 960 960">
    <path d="m336-280 144-144 144 144 56-56-144-144 144-144-56-56-144 144-144-144-56 56 144 144-144 144 56 56ZM480-80q-83 0-156-31.5T197-197q-54-54-85.5-127T80-480q0-83 31.5-156T197-763q54-54 127-85.5T480-880q83 0 156 31.5T763-763q54 54 85.5 127T880-480q0 83-31.5 156T763-197q-54 54-127 85.5T480-80Zm0-80q134 0 227-93t93-227q0-134-93-227t-227-93q-134 0-227 93t-93 227q0 134 93 227t227 93Zm0-320Z"/>
  </symbol>
  <symbol id="icon-bright-alert" viewBox="0 -960 960 960">
    <path d="m40-120 440-760 440 760H40Zm138-80h604L480-720 178-200Zm302-40q17 0 28.5-11.5T520-280q0-17-11.5-28.5T480-320q-17 0-28.5 11.5T440-280q0 17 11.5 28.5T480-240Zm-40-120h80v-200h-80v200Zm40-100Z"/>
  </symbol>
  <symbol id="icon-bright-error" viewBox="0 -960 960 960">
    <path d="M480-280q17 0 28.5-11.5T520-320q0-17-11.5-28.5T480-360q-17 0-28.5 11.5T440-320q0 17 11.5 28.5T480-280Zm-40-160h80v-240h-80v240Zm40 360q-83 0-156-31.5T197-197q-54-54-85.5-127T80-480q0-83 31.5-156T197-763q54-54 127-85.5T480-880q83 0 156 31.5T763-763q54 54 85.5 127T880-480q0 83-31.5 156T763-197q-54 54-127 85.5T480-80Zm0-80q134 0 227-93t93-227q0-134-93-227t-227-93q-134 0-227 93t-93 227q0 134 93 227t227 93Zm0-320Z"/>
  </symbol>
  <symbol id="icon-bright-calendar" viewBox="0 -960 960 960">
    <path d="M200-80q-33 0-56.5-23.5T120-160v-560q0-33 23.5-56.5T200-800h40v-80h80v80h320v-80h80v80h40q33 0 56.5 23.5T840-720v560q0 33-23.5 56.5T760-80H200Zm0-80h560v-400H200v400Zm0-480h560v-80H200v80Zm0 0v-80 80Zm280 240q-17 0-28.5-11.5T440-440q0-17 11.5-28.5T480-480q17 0 28.5 11.5T520-440q0 17-11.5 28.5T480-400Zm-160 0q-17 0-28.5-11.5T280-440q0-17 11.5-28.5T320-480q17 0 28.5 11.5T360-440q0 17-11.5 28.5T320-400Zm320 0q-17 0-28.5-11.5T600-440q0-17 11.5-28.5T640-480q17 0 28.5 11.5T680-440q0 17-11.5 28.5T640-400ZM480-240q-17 0-28.5-11.5T440-280q0-17 11.5-28.5T480-320q17 0 28.5 11.5T520-280q0 17-11.5 28.5T480-240Zm-160 0q-17 0-28.5-11.5T280-280q0-17 11.5-28.5T320-320q17 0 28.5 11.5T360-280q0 17-11.5 28.5T320-240Zm320 0q-17 0-28.5-11.5T600-280q0-17 11.5-28.5T640-320q17 0 28.5 11.5T680-280q0 17-11.5 28.5T640-240Z"/>
  </symbol>
  <symbol id="icon-bright-back." viewBox="0 -960 960 960">
    <path d="m313-440 224 224-57 56-320-320 320-320 57 56-224 224h487v80H313Z"/>
  </symbol>
  <symbol id="icon-bright-rerun" viewBox="0 -960 960 960">
    <path d="M480-80q-75 0-140.5-28.5t-114-77q-48.5-48.5-77-114T120-440h80q0 117 81.5 198.5T480-160q117 0 198.5-81.5T760-440q0-117-81.5-198.5T480-720h-6l62 62-56 58-160-160 160-160 56 58-62 62h6q75 0 140.5 28.5t114 77q48.5 48.5 77 114T840-440q0 75-28.5 140.5t-77 114q-48.5 48.5-114 77T480-80Z"/>
  </symbol>
  <symbol id="icon-bright-more-horiz" viewBox="0 -960 960 960">
    <path d="M240-400q-33 0-56.5-23.5T160-480q0-33 23.5-56.5T240-560q33 0 56.5 23.5T320-480q0 33-23.5 56.5T240-400Zm240 0q-33 0-56.5-23.5T400-480q0-33 23.5-56.5T480-560q33 0 56.5 23.5T560-480q0 33-23.5 56.5T480-400Zm240 0q-33 0-56.5-23.5T640-480q0-33 23.5-56.5T720-560q33 0 56.5 23.5T800-480q0 33-23.5 56.5T720-400Z"/>
  </symbol>
  <symbol id="icon-bright-home" viewBox="0 -960 960 960">
    <path d="M240-200h120v-240h240v240h120v-360L480-740 240-560v360Zm-80 80v-480l320-240 320 240v480H520v-240h-80v240H160Zm320-350Z"/>
  </symbol>
  <symbol id="icon-bright-publish" viewBox="0 -960 960 960">
    <path d="M440-160v-326L336-382l-56-58 200-200 200 200-56 58-104-104v326h-80ZM160-600v-120q0-33 23.5-56.5T240-800h480q33 0 56.5 23.5T800-720v120h-80v-120H240v120h-80Z"/>
  </symbol>
  <symbol id="icon-bright-settings" viewBox="0 -960 960 960">
    <path d="m370-80-16-128q-13-5-24.5-12T307-235l-119 50L78-375l103-78q-1-7-1-13.5v-27q0-6.5 1-13.5L78-585l110-190 119 50q11-8 23-15t24-12l16-128h220l16 128q13 5 24.5 12t22.5 15l119-50 110 190-103 78q1 7 1 13.5v27q0 6.5-2 13.5l103 78-110 190-118-50q-11 8-23 15t-24 12L590-80H370Zm70-80h79l14-106q31-8 57.5-23.5T639-327l99 41 39-68-86-65q5-14 7-29.5t2-31.5q0-16-2-31.5t-7-29.5l86-65-39-68-99 42q-22-23-48.5-38.5T533-694l-13-106h-79l-14 106q-31 8-57.5 23.5T321-633l-99-41-39 68 86 64q-5 15-7 30t-2 32q0 16 2 31t7 30l-86 65 39 68 99-42q22 23 48.5 38.5T427-266l13 106Zm42-180q58 0 99-41t41-99q0-58-41-99t-99-41q-59 0-99.5 41T342-480q0 58 40.5 99t99.5 41Zm-2-140Z"/>
  </symbol>
  <symbol id="icon-bright-open" viewBox="0 -960 960 960">
    <path d="M240-80q-33 0-56.5-23.5T160-160v-640q0-33 23.5-56.5T240-880h320l240 240v240h-80v-200H520v-200H240v640h360v80H240Zm638 15L760-183v89h-80v-226h226v80h-90l118 118-56 57Zm-638-95v-640 640Z"/>
  </symbol>
  <symbol id="icon-bright-download-for-offline" viewBox="0 -960 960 960">
    <path d="M280-280h400v-80H280v80Zm200-120 160-160-56-56-64 62v-166h-80v166l-64-62-56 56 160 160Zm0 320q-83 0-156-31.5T197-197q-54-54-85.5-127T80-480q0-83 31.5-156T197-763q54-54 127-85.5T480-880q83 0 156 31.5T763-763q54 54 85.5 127T880-480q0 83-31.5 156T763-197q-54 54-127 85.5T480-80Zm0-80q134 0 227-93t93-227q0-134-93-227t-227-93q-134 0-227 93t-93 227q0 134 93 227t227 93Zm0-320Z"/>
  </symbol>
  <symbol id="icon-bright-stop" viewBox="0 -960 960 960">
    <path d="M320-320h320v-320H320v320ZM480-80q-83 0-156-31.5T197-197q-54-54-85.5-127T80-480q0-83 31.5-156T197-763q54-54 127-85.5T480-880q83 0 156 31.5T763-763q54 54 85.5 127T880-480q0 83-31.5 156T763-197q-54 54-127 85.5T480-80Zm0-80q134 0 227-93t93-227q0-134-93-227t-227-93q-134 0-227 93t-93 227q0 134 93 227t227 93Zm0-320Z"/>
  </symbol>
  <symbol id="icon-bright-audio-file" viewBox="0 -960 960 960">
    <path d="M430-200q38 0 64-26t26-64v-150h120v-80H480v155q-11-8-23.5-11.5T430-380q-38 0-64 26t-26 64q0 38 26 64t64 26ZM240-80q-33 0-56.5-23.5T160-160v-640q0-33 23.5-56.5T240-880h320l240 240v480q0 33-23.5 56.5T720-80H240Zm280-520v-200H240v640h480v-440H520ZM240-800v200-200 640-640Z"/>
  </symbol>
  <symbol id="icon-bright-save" viewBox="0 -960 960 960">
    <path d="M840-680v480q0 33-23.5 56.5T760-120H200q-33 0-56.5-23.5T120-200v-560q0-33 23.5-56.5T200-840h480l160 160Zm-80 34L646-760H200v560h560v-446ZM480-240q50 0 85-35t35-85q0-50-35-85t-85-35q-50 0-85 35t-35 85q0 50 35 85t85 35ZM240-560h360v-160H240v160Zm-40-86v446-560 114Z"/>
  </symbol>
  <symbol id="icon-bright-navigate-next" viewBox="0 0 24 24">
    <path d="M0 0h24v24H0V0z" fill="none"/>
    <path d="M10.02 6L8.61 7.41 13.19 12l-4.58 4.59L10.02 18l6-6-6-6z"/>
  </symbol>
  <symbol id="icon-bright-create" viewBox="0 -960 960 960">
    <path d="M560-320h80v-80h80v-80h-80v-80h-80v80h-80v80h80v80ZM160-160q-33 0-56.5-23.5T80-240v-480q0-33 23.5-56.5T160-800h240l80 80h320q33 0 56.5 23.5T880-640v400q0 33-23.5 56.5T800-160H160Zm0-80h640v-400H447l-80-80H160v480Zm0 0v-480 480Z"/>
  </symbol>
  <symbol id="icon-bright-preview" viewBox="0 -960 960 960">
    <path d="M200-120q-33 0-56.5-23.5T120-200v-560q0-33 23.5-56.5T200-840h560q33 0 56.5 23.5T840-760v560q0 33-23.5 56.5T760-120H200Zm0-80h560v-480H200v480Zm280-80q-82 0-146.5-44.5T240-440q29-71 93.5-115.5T480-600q82 0 146.5 44.5T720-440q-29 71-93.5 115.5T480-280Zm0-60q56 0 102-26.5t72-73.5q-26-47-72-73.5T480-540q-56 0-102 26.5T306-440q26 47 72 73.5T480-340Zm0-100Zm0 60q25 0 42.5-17.5T540-440q0-25-17.5-42.5T480-500q-25 0-42.5 17.5T420-440q0 25 17.5 42.5T480-380Z"/>
  </symbol>
  <symbol id="icon-bright-mic" viewBox="0 -960 960 960">
    <path d="M480-400q-50 0-85-35t-35-85v-240q0-50 35-85t85-35q50 0 85 35t35 85v240q0 50-35 85t-85 35Zm0-240Zm-40 520v-123q-104-14-172-93t-68-184h80q0 83 58.5 141.5T480-320q83 0 141.5-58.5T680-520h80q0 105-68 184t-172 93v123h-80Zm40-360q17 0 28.5-11.5T520-520v-240q0-17-11.5-28.5T480-800q-17 0-28.5 11.5T440-760v240q0 17 11.5 28.5T480-480Z"/>
  </symbol>
  <symbol id="icon-bright-key-down" viewBox="0 -960 960 960">
    <path d="M480-200 240-440l56-56 184 183 184-183 56 56-240 240Zm0-240L240-680l56-56 184 183 184-183 56 56-240 240Z"/>
  </symbol>
  <symbol id="icon-bright-activity" viewBox="0 -960 960 960">
    <path d="M720 0 600-120v-60L316-464q-9 2-18 3t-18 1v-88q50 2 102-21.5t84-58.5l56-62q13-15 30.5-22.5T590-720q38 0 64 26t26 64v230q0 26-9.5 47.5T644-314L500-456v-92q-20 17-43 31t-49 25l252 252h60l120 120L720 0ZM220-140l-60-60 180-180 100 100h-80L220-140Zm380-620q-33 0-56.5-23.5T520-840q0-33 23.5-56.5T600-920q33 0 56.5 23.5T680-840q0 33-23.5 56.5T600-760Z"/>
  </symbol>
  <symbol id="icon-bright-sort" viewBox="0 -960 960 960">
    <path d="M120-240v-80h240v80H120Zm0-200v-80h480v80H120Zm0-200v-80h720v80H120Z"/>
  </symbol>
  <symbol id="icon-bright-back" viewBox="0 -960 960 960">
    <path d="m313-440 224 224-57 56-320-320 320-320 57 56-224 224h487v80H313Z"/>
  </symbol>
  <symbol id="icon-bright-warning" viewBox="0 -960 960 960">
    <path d="m40-120 440-760 440 760H40Zm138-80h604L480-720 178-200Zm302-40q17 0 28.5-11.5T520-280q0-17-11.5-28.5T480-320q-17 0-28.5 11.5T440-280q0 17 11.5 28.5T480-240Zm-40-120h80v-200h-80v200Zm40-100Z"/>
  </symbol>
  <symbol id="icon-bright-add-circle" viewBox="0 -960 960 960">
    <path d="M440-280h80v-160h160v-80H520v-160h-80v160H280v80h160v160Zm40 200q-83 0-156-31.5T197-197q-54-54-85.5-127T80-480q0-83 31.5-156T197-763q54-54 127-85.5T480-880q83 0 156 31.5T763-763q54 54 85.5 127T880-480q0 83-31.5 156T763-197q-54 54-127 85.5T480-80Zm0-80q134 0 227-93t93-227q0-134-93-227t-227-93q-134 0-227 93t-93 227q0 134 93 227t227 93Zm0-320Z"/>
  </symbol>
  <symbol id="icon-bright-build" viewBox="0 -960 960 960">
    <path d="M686-132 444-376q-20 8-40.5 12t-43.5 4q-100 0-170-70t-70-170q0-36 10-68.5t28-61.5l146 146 72-72-146-146q29-18 61.5-28t68.5-10q100 0 170 70t70 170q0 23-4 43.5T584-516l244 242q12 12 12 29t-12 29l-84 84q-12 12-29 12t-29-12Zm29-85 27-27-256-256q18-20 26-46.5t8-53.5q0-60-38.5-104.5T386-758l74 74q12 12 12 28t-12 28L332-500q-12 12-28 12t-28-12l-74-74q9 57 53.5 95.5T360-440q26 0 52-8t47-25l256 256ZM472-488Z"/>
  </symbol>
  <symbol id="icon-bright-draft" viewBox="0 -960 960 960">
    <path d="M240-80q-33 0-56.5-23.5T160-160v-640q0-33 23.5-56.5T240-880h320l240 240v480q0 33-23.5 56.5T720-80H240Zm280-520v-200H240v640h480v-440H520ZM240-800v200-200 640-640Z"/>
  </symbol>
  <symbol id="icon-bright-broken-image" viewBox="0 -960 960 960">
    <path d="M200-120q-33 0-56.5-23.5T120-200v-560q0-33 23.5-56.5T200-840h560q33 0 56.5 23.5T840-760v560q0 33-23.5 56.5T760-120H200Zm40-337 160-160 160 160 160-160 40 40v-183H200v263l40 40Zm-40 257h560v-264l-40-40-160 160-160-160-160 160-40-40v184Zm0 0v-264 80-376 560Z"/>
  </symbol>
  <symbol id="icon-bright-docuemnts" viewBox="0 -960 960 960">
    <path d="M130-189 81-546q-5-32 15.5-58t52.5-31l61 435 283-40h267q-8 21-24.5 35.5T695-187l-477 66q-33 5-58-15t-30-53Zm190-127q-33 0-56.5-23.5T240-396v-364q0-33 23.5-56.5T320-840h480q33 0 56.5 23.5T880-760v364q0 33-23.5 56.5T800-316H320Zm0-80h480v-364H320v364Zm0 0v-364 364ZM210-200Zm190-400h320v-80H400v80Zm0 120h200v-80H400v80Z"/>
  </symbol>
  <symbol id="icon-bright-block" viewBox="0 -960 960 960">
    <path d="M480-80q-83 0-156-31.5T197-197q-54-54-85.5-127T80-480q0-83 31.5-156T197-763q54-54 127-85.5T480-880q83 0 156 31.5T763-763q54 54 85.5 127T880-480q0 83-31.5 156T763-197q-54 54-127 85.5T480-80Zm0-80q54 0 104-17.5t92-50.5L228-676q-33 42-50.5 92T160-480q0 134 93 227t227 93Zm252-124q33-42 50.5-92T800-480q0-134-93-227t-227-93q-54 0-104 17.5T284-732l448 448ZM480-480Z"/>
  </symbol>
  <symbol id="icon-bright-playlist" viewBox="0 -960 960 960">
    <path d="M240-440h360v-80H240v80Zm0-120h360v-80H240v80Zm-80 400q-33 0-56.5-23.5T80-240v-480q0-33 23.5-56.5T160-800h640q33 0 56.5 23.5T880-720v480q0 33-23.5 56.5T800-160H160Zm0-80h640v-480H160v480Zm0 0v-480 480Z"/>
  </symbol>
  <symbol id="icon-bright-assign" viewBox="0 -960 960 960">
    <path d="M200-120q-33 0-56.5-23.5T120-200v-560q0-33 23.5-56.5T200-840h168q13-36 43.5-58t68.5-22q38 0 68.5 22t43.5 58h168q33 0 56.5 23.5T840-760v268q-19-9-39-15.5t-41-9.5v-243H200v560h242q3 22 9.5 42t15.5 38H200Zm0-120v40-560 243-3 280Zm80-40h163q3-21 9.5-41t14.5-39H280v80Zm0-160h244q32-30 71.5-50t84.5-27v-3H280v80Zm0-160h400v-80H280v80Zm200-190q13 0 21.5-8.5T510-820q0-13-8.5-21.5T480-850q-13 0-21.5 8.5T450-820q0 13 8.5 21.5T480-790ZM720-40q-83 0-141.5-58.5T520-240q0-83 58.5-141.5T720-440q83 0 141.5 58.5T920-240q0 83-58.5 141.5T720-40Zm-20-80h40v-100h100v-40H740v-100h-40v100H600v40h100v100Z"/>
  </symbol>
  <symbol id="icon-bright-mic-gear" viewBox="0 -960 960 960">
    <path d="M400-400q-50 0-85-35t-35-85v-240q0-50 35-85t85-35q50 0 85 35t35 85v240q0 50-35 85t-85 35Zm0-80q17 0 28.5-11.5T440-520v-240q0-17-11.5-28.5T400-800q-17 0-28.5 11.5T360-760v240q0 17 11.5 28.5T400-480Zm40 360h-80v-123q-104-14-172-93t-68-184h80q0 83 58.5 141.5T400-320q11 0 20.5-1t19.5-3v204Zm-40-520ZM640-80l-12-60q-12-5-22.5-10.5T584-164l-58 18-40-68 46-40q-2-13-2-26t2-26l-46-40 40-68 58 18q11-8 21.5-13.5T628-420l12-60h80l12 60q12 5 22.5 10.5T776-396l58-18 40 68-46 40q2 13 2 26t-2 26l46 40-40 68-58-18q-11 8-21.5 13.5T732-140l-12 60h-80Zm40-120q33 0 56.5-23.5T760-280q0-33-23.5-56.5T680-360q-33 0-56.5 23.5T600-280q0 33 23.5 56.5T680-200Z"/>
  </symbol>
  <symbol id="icon-bright-upload" viewBox="0 -960 960 960">
    <path d="M440-320v-326L336-542l-56-58 200-200 200 200-56 58-104-104v326h-80ZM240-160q-33 0-56.5-23.5T160-240v-120h80v120h480v-120h80v120q0 33-23.5 56.5T720-160H240Z"/>
  </symbol>
  <symbol id="icon-bright-login" viewBox="0 -960 960 960">
    <path d="M480-120v-80h280v-560H480v-80h280q33 0 56.5 23.5T840-760v560q0 33-23.5 56.5T760-120H480Zm-80-160-55-58 102-102H120v-80h327L345-622l55-58 200 200-200 200Z"/>
  </symbol>
  <symbol id="icon-bright-private" viewBox="0 -960 960 960">
    <path d="M240-80q-33 0-56.5-23.5T160-160v-400q0-33 23.5-56.5T240-640h40v-80q0-83 58.5-141.5T480-920q83 0 141.5 58.5T680-720v80h40q33 0 56.5 23.5T800-560v400q0 33-23.5 56.5T720-80H240Zm0-80h480v-400H240v400Zm240-120q33 0 56.5-23.5T560-360q0-33-23.5-56.5T480-440q-33 0-56.5 23.5T400-360q0 33 23.5 56.5T480-280ZM360-640h240v-80q0-50-35-85t-85-35q-50 0-85 35t-35 85v80ZM240-160v-400 400Z"/>
  </symbol>
  <symbol id="icon-bright-music" viewBox="0 -960 960 960">
    <path d="M400-120q-66 0-113-47t-47-113q0-66 47-113t113-47q23 0 42.5 5.5T480-418v-422h240v160H560v400q0 66-47 113t-113 47Z"/>
  </symbol>
  <symbol id="icon-bright-processing" viewBox="0 0 24 24">
    <g>
      <rect fill="none" height="24" width="24"/>
      <path d="M17,12c-2.76,0-5,2.24-5,5s2.24,5,5,5c2.76,0,5-2.24,5-5S19.76,12,17,12z M18.65,19.35l-2.15-2.15V14h1v2.79l1.85,1.85 L18.65,19.35z M18,3h-3.18C14.4,1.84,13.3,1,12,1S9.6,1.84,9.18,3H6C4.9,3,4,3.9,4,5v15c0,1.1,0.9,2,2,2h6.11 c-0.59-0.57-1.07-1.25-1.42-2H6V5h2v3h8V5h2v5.08c0.71,0.1,1.38,0.31,2,0.6V5C20,3.9,19.1,3,18,3z M12,5c-0.55,0-1-0.45-1-1 c0-0.55,0.45-1,1-1c0.55,0,1,0.45,1,1C13,4.55,12.55,5,12,5z"/>
    </g>
  </symbol>
  <symbol id="icon-bright-key-left" viewBox="0 -960 960 960">
    <path d="M440-240 200-480l240-240 56 56-183 184 183 184-56 56Zm264 0L464-480l240-240 56 56-183 184 183 184-56 56Z"/>
  </symbol>
  <symbol id="icon-bright-mix" viewBox="0 -960 960 960">
    <path d="M200-160v-280h-80v-80h240v80h-80v280h-80Zm0-440v-200h80v200h-80Zm160 0v-80h80v-120h80v120h80v80H360Zm80 440v-360h80v360h-80Zm240 0v-120h-80v-80h240v80h-80v120h-80Zm0-280v-360h80v360h-80Z"/>
  </symbol>
  <symbol id="icon-bright-help" viewBox="0 -960 960 960">
    <path d="M478-240q21 0 35.5-14.5T528-290q0-21-14.5-35.5T478-340q-21 0-35.5 14.5T428-290q0 21 14.5 35.5T478-240Zm-36-154h74q0-33 7.5-52t42.5-52q26-26 41-49.5t15-56.5q0-56-41-86t-97-30q-57 0-92.5 30T342-618l66 26q5-18 22.5-39t53.5-21q32 0 48 17.5t16 38.5q0 20-12 37.5T506-526q-44 39-54 59t-10 73Zm38 314q-83 0-156-31.5T197-197q-54-54-85.5-127T80-480q0-83 31.5-156T197-763q54-54 127-85.5T480-880q83 0 156 31.5T763-763q54 54 85.5 127T880-480q0 83-31.5 156T763-197q-54 54-127 85.5T480-80Zm0-80q134 0 227-93t93-227q0-134-93-227t-227-93q-134 0-227 93t-93 227q0 134 93 227t227 93Zm0-320Z"/>
  </symbol>
  <symbol id="icon-bright-copy" viewBox="0 -960 960 960">
    <path d="M360-240q-33 0-56.5-23.5T280-320v-480q0-33 23.5-56.5T360-880h360q33 0 56.5 23.5T800-800v480q0 33-23.5 56.5T720-240H360Zm0-80h360v-480H360v480ZM200-80q-33 0-56.5-23.5T120-160v-560h80v560h440v80H200Zm160-240v-480 480Z"/>
  </symbol>
  <symbol id="icon-bright-navigate-before" viewBox="0 0 24 24">
    <path d="M0 0h24v24H0V0z" fill="none"/>
    <path d="M15.61 7.41L14.2 6l-6 6 6 6 1.41-1.41L11.03 12l4.58-4.59z"/>
  </symbol>
  <symbol id="icon-bright-add" viewBox="0 -960 960 960">
    <path d="M440-120v-320H120v-80h320v-320h80v320h320v80H520v320h-80Z"/>
  </symbol>
  <symbol id="icon-bright-filter-list" viewBox="0 -960 960 960">
    <path d="M400-240v-80h160v80H400ZM240-440v-80h480v80H240ZM120-640v-80h720v80H120Z"/>
  </symbol>
  <symbol id="icon-bright-edit-audio" viewBox="0 -960 960 960">
    <path d="M240-80 80-240l160-160 57 56-64 64h494l-63-64 56-56 160 160L720-80l-57-56 64-64H233l63 64-56 56Zm200-360v-480h80v480h-80Zm-160-80v-320h80v320h-80Zm320 0v-320h80v320h-80ZM120-620v-120h80v120h-80Zm640 0v-120h80v120h-80Z"/>
  </symbol>
  <symbol id="icon-bright-json" viewBox="0 -960 960 960">
    <path d="M190-360h70q17 0 28.5-11.5T300-400v-200h-60v190h-40v-50h-50v60q0 17 11.5 28.5T190-360Zm177 0h60q17 0 28.5-11.5T467-400v-60q0-17-11.5-28.5T427-500h-50v-50h40v20h50v-30q0-17-11.5-28.5T427-600h-60q-17 0-28.5 11.5T327-560v60q0 17 11.5 28.5T367-460h50v50h-40v-20h-50v30q0 17 11.5 28.5T367-360Zm176-60v-120h40v120h-40Zm-10 60h60q17 0 28.5-11.5T633-400v-160q0-17-11.5-28.5T593-600h-60q-17 0-28.5 11.5T493-560v160q0 17 11.5 28.5T533-360Zm127 0h50v-105l40 105h50v-240h-50v105l-40-105h-50v240ZM120-160q-33 0-56.5-23.5T40-240v-480q0-33 23.5-56.5T120-800h720q33 0 56.5 23.5T920-720v480q0 33-23.5 56.5T840-160H120Zm0-80h720v-480H120v480Zm0 0v-480 480Z"/>
  </symbol>
  <symbol id="icon-bright-toggle-on" viewBox="0 -960 960 960">
    <path d="M280-240q-100 0-170-70T40-480q0-100 70-170t170-70h400q100 0 170 70t70 170q0 100-70 170t-170 70H280Zm0-80h400q66 0 113-47t47-113q0-66-47-113t-113-47H280q-66 0-113 47t-47 113q0 66 47 113t113 47Zm400-40q50 0 85-35t35-85q0-50-35-85t-85-35q-50 0-85 35t-35 85q0 50 35 85t85 35ZM480-480Z"/>
  </symbol>
  <symbol id="icon-bright-mic-off" viewBox="0 -960 960 960">
    <path d="m710-362-58-58q14-23 21-48t7-52h80q0 44-13 83.5T710-362ZM480-594Zm112 112-72-72v-206q0-17-11.5-28.5T480-800q-17 0-28.5 11.5T440-760v126l-80-80v-46q0-50 35-85t85-35q50 0 85 35t35 85v240q0 11-2.5 20t-5.5 18ZM440-120v-123q-104-14-172-93t-68-184h80q0 83 57.5 141.5T480-320q34 0 64.5-10.5T600-360l57 57q-29 23-63.5 39T520-243v123h-80Zm352 64L56-792l56-56 736 736-56 56Z"/>
  </symbol>
  <symbol id="icon-bright-accounts" viewBox="0 -960 960 960">
    <path d="M400-480q-66 0-113-47t-47-113q0-66 47-113t113-47q66 0 113 47t47 113q0 66-47 113t-113 47ZM80-160v-112q0-33 17-62t47-44q51-26 115-44t141-18h14q6 0 12 2-8 18-13.5 37.5T404-360h-4q-71 0-127.5 18T180-306q-9 5-14.5 14t-5.5 20v32h252q6 21 16 41.5t22 38.5H80Zm560 40-12-60q-12-5-22.5-10.5T584-204l-58 18-40-68 46-40q-2-14-2-26t2-26l-46-40 40-68 58 18q11-8 21.5-13.5T628-460l12-60h80l12 60q12 5 22.5 11t21.5 15l58-20 40 70-46 40q2 12 2 25t-2 25l46 40-40 68-58-18q-11 8-21.5 13.5T732-180l-12 60h-80Zm40-120q33 0 56.5-23.5T760-320q0-33-23.5-56.5T680-400q-33 0-56.5 23.5T600-320q0 33 23.5 56.5T680-240ZM400-560q33 0 56.5-23.5T480-640q0-33-23.5-56.5T400-720q-33 0-56.5 23.5T320-640q0 33 23.5 56.5T400-560Zm0-80Zm12 400Z"/>
  </symbol>
  <symbol id="icon-bright-pause" viewBox="0 -960 960 960">
    <path d="M360-320h80v-320h-80v320Zm160 0h80v-320h-80v320ZM480-80q-83 0-156-31.5T197-197q-54-54-85.5-127T80-480q0-83 31.5-156T197-763q54-54 127-85.5T480-880q83 0 156 31.5T763-763q54 54 85.5 127T880-480q0 83-31.5 156T763-197q-54 54-127 85.5T480-80Zm0-80q134 0 227-93t93-227q0-134-93-227t-227-93q-134 0-227 93t-93 227q0 134 93 227t227 93Zm0-320Z"/>
  </symbol>
  <symbol id="icon-bright-blocked" viewBox="0 -960 960 960">
    <path d="M280-440h400v-80H280v80ZM480-80q-83 0-156-31.5T197-197q-54-54-85.5-127T80-480q0-83 31.5-156T197-763q54-54 127-85.5T480-880q83 0 156 31.5T763-763q54 54 85.5 127T880-480q0 83-31.5 156T763-197q-54 54-127 85.5T480-80Zm0-80q134 0 227-93t93-227q0-134-93-227t-227-93q-134 0-227 93t-93 227q0 134 93 227t227 93Zm0-320Z"/>
  </symbol>
  <symbol id="icon-dark-play" viewBox="0 -960 960 960">
    <path d="m380-300 280-180-280-180v360ZM480-80q-83 0-156-31.5T197-197q-54-54-85.5-127T80-480q0-83 31.5-156T197-763q54-54 127-85.5T480-880q83 0 156 31.5T763-763q54 54 85.5 127T880-480q0 83-31.5 156T763-197q-54 54-127 85.5T480-80Zm0-80q134 0 227-93t93-227q0-134-93-227t-227-93q-134 0-227 93t-93 227q0 134 93 227t227 93Zm0-320Z"/>
  </symbol>
  <symbol id="icon-dark-list" viewBox="0 -960 960 960">
    <path d="M280-600v-80h560v80H280Zm0 160v-80h560v80H280Zm0 160v-80h560v80H280ZM160-600q-17 0-28.5-11.5T120-640q0-17 11.5-28.5T160-680q17 0 28.5 11.5T200-640q0 17-11.5 28.5T160-600Zm0 160q-17 0-28.5-11.5T120-480q0-17 11.5-28.5T160-520q17 0 28.5 11.5T200-480q0 17-11.5 28.5T160-440Zm0 160q-17 0-28.5-11.5T120-320q0-17 11.5-28.5T160-360q17 0 28.5 11.5T200-320q0 17-11.5 28.5T160-280Z"/>
  </symbol>
  <symbol id="icon-dark-create-events" viewBox="0 -960 960 960">
    <path d="M680-80v-120H560v-80h120v-120h80v120h120v80H760v120h-80Zm-480-80q-33 0-56.5-23.5T120-240v-480q0-33 23.5-56.5T200-800h40v-80h80v80h240v-80h80v80h40q33 0 56.5 23.5T760-720v244q-20-3-40-3t-40 3v-84H200v320h280q0 20 3 40t11 40H200Zm0-480h480v-80H200v80Zm0 0v-80 80Z"/>
  </symbol>
  <symbol id="icon-dark-antenna" viewBox="0 -960 960 960">
    <path d="M440-80v-331q-18-11-29-28.5T400-480q0-33 23.5-56.5T480-560q33 0 56.5 23.5T560-480q0 23-11 41t-29 28v331h-80ZM204-190q-57-55-90.5-129.5T80-480q0-83 31.5-156T197-763q54-54 127-85.5T480-880q83 0 156 31.5T763-763q54 54 85.5 127T880-480q0 86-33.5 161T756-190l-56-56q46-44 73-104.5T800-480q0-134-93-227t-227-93q-134 0-227 93t-93 227q0 69 27 129t74 104l-57 57Zm113-113q-35-33-56-78.5T240-480q0-100 70-170t170-70q100 0 170 70t70 170q0 53-21 99t-56 78l-57-57q25-23 39.5-54t14.5-66q0-66-47-113t-113-47q-66 0-113 47t-47 113q0 36 14.5 66.5T374-360l-57 57Z"/>
  </symbol>
  <symbol id="icon-dark-comment" viewBox="0 -960 960 960">
    <path d="M240-400h480v-80H240v80Zm0-120h480v-80H240v80Zm0-120h480v-80H240v80ZM880-80 720-240H160q-33 0-56.5-23.5T80-320v-480q0-33 23.5-56.5T160-880h640q33 0 56.5 23.5T880-800v720ZM160-320h594l46 45v-525H160v480Zm0 0v-480 480Z"/>
  </symbol>
  <symbol id="icon-dark-prepared" viewBox="0 0 24 24">
    <path d="M0 0h24v24H0V0z" fill="none"/>
    <path d="M12 2C6.48 2 2 6.48 2 12s4.48 10 10 10 10-4.48 10-10S17.52 2 12 2zm0 18c-4.41 0-8-3.59-8-8s3.59-8 8-8 8 3.59 8 8-3.59 8-8 8zm4.59-12.42L10 14.17l-2.59-2.58L6 13l4 4 8-8z"/>
  </symbol>
  <symbol id="icon-dark-menu" viewBox="0 -960 960 960">
    <path d="M120-240v-80h720v80H120Zm0-200v-80h720v80H120Zm0-200v-80h720v80H120Z"/>
  </symbol>
  <symbol id="icon-dark-deleted" viewBox="0 -960 960 960">
    <path d="M280-120q-33 0-56.5-23.5T200-200v-520h-40v-80h200v-40h240v40h200v80h-40v520q0 33-23.5 56.5T680-120H280Zm400-600H280v520h400v-520ZM360-280h80v-360h-80v360Zm160 0h80v-360h-80v360ZM280-720v520-520Z"/>
  </symbol>
  <symbol id="icon-dark-notify" viewBox="0 -960 960 960">
    <path d="M480-220q25 0 42.5-17.5T540-280H420q0 25 17.5 42.5T480-220ZM280-320h400v-80h-40v-104q0-61-31.5-111.5T520-680v-20q0-17-11.5-28.5T480-740q-17 0-28.5 11.5T440-700v20q-57 14-88.5 64.5T320-504v104h-40v80Zm120-80v-120q0-33 23.5-56.5T480-600q33 0 56.5 23.5T560-520v120H400Zm80 320q-83 0-156-31.5T197-197q-54-54-85.5-127T80-480q0-83 31.5-156T197-763q54-54 127-85.5T480-880q83 0 156 31.5T763-763q54 54 85.5 127T880-480q0 83-31.5 156T763-197q-54 54-127 85.5T480-80Zm0-80q134 0 227-93t93-227q0-134-93-227t-227-93q-134 0-227 93t-93 227q0 134 93 227t227 93Zm0-320Z"/>
  </symbol>
  <symbol id="icon-dark-feed" viewBox="0 -960 960 960">
    <path d="M200-120q-33 0-56.5-23.5T120-200q0-33 23.5-56.5T200-280q33 0 56.5 23.5T280-200q0 33-23.5 56.5T200-120Zm480 0q0-117-44-218.5T516-516q-76-76-177.5-120T120-680v-120q142 0 265 53t216 146q93 93 146 216t53 265H680Zm-240 0q0-67-25-124.5T346-346q-44-44-101.5-69T120-440v-120q92 0 171.5 34.5T431-431q60 60 94.5 139.5T560-120H440Z"/>
  </symbol>
  <symbol id="icon-dark-arrow_down" viewBox="0 -960 960 960">
    <path d="M480-344 240-584l56-56 184 184 184-184 56 56-240 240Z"/>
  </symbol>
  <symbol id="icon-dark-schedule" viewBox="0 -960 960 960">
    <path d="m612-292 56-56-148-148v-184h-80v216l172 172ZM480-80q-83 0-156-31.5T197-197q-54-54-85.5-127T80-480q0-83 31.5-156T197-763q54-54 127-85.5T480-880q83 0 156 31.5T763-763q54 54 85.5 127T880-480q0 83-31.5 156T763-197q-54 54-127 85.5T480-80Zm0-400Zm0 320q133 0 226.5-93.5T800-480q0-133-93.5-226.5T480-800q-133 0-226.5 93.5T160-480q0 133 93.5 226.5T480-160Z"/>
  </symbol>
  <symbol id="icon-dark-toggle-off" viewBox="0 -960 960 960">
    <path d="M280-240q-100 0-170-70T40-480q0-100 70-170t170-70h400q100 0 170 70t70 170q0 100-70 170t-170 70H280Zm0-80h400q66 0 113-47t47-113q0-66-47-113t-113-47H280q-66 0-113 47t-47 113q0 66 47 113t113 47Zm0-40q50 0 85-35t35-85q0-50-35-85t-85-35q-50 0-85 35t-35 85q0 50 35 85t85 35Zm200-120Z"/>
  </symbol>
  <symbol id="icon-dark-archive" viewBox="0 0 24 24">
    <path d="M0 0h24v24H0V0z" fill="none"/>
    <path d="M20.54 5.23l-1.39-1.68C18.88 3.21 18.47 3 18 3H6c-.47 0-.88.21-1.16.55L3.46 5.23C3.17 5.57 3 6.02 3 6.5V19c0 1.1.9 2 2 2h14c1.1 0 2-.9 2-2V6.5c0-.48-.17-.93-.46-1.27zM6.24 5h11.52l.81.97H5.44l.8-.97zM5 19V8h14v11H5zm8.45-9h-2.9v3H8l4 4 4-4h-2.55z"/>
  </symbol>
  <symbol id="icon-dark-move" viewBox="0 -960 960 960">
    <path d="m280-120-56-56 63-66q-106-12-176.5-91.5T40-520q0-117 81.5-198.5T320-800h120v80H320q-83 0-141.5 58.5T120-520q0 72 46 127t117 69l-59-59 56-57 160 160-160 160Zm240-40v-280h360v280H520Zm0-360v-280h360v280H520Zm80-80h200v-120H600v120Z"/>
  </symbol>
  <symbol id="icon-dark-globe" viewBox="0 -960 960 960">
    <path d="M480-80q-83 0-156-31.5T197-197q-54-54-85.5-127T80-480q0-83 31.5-156T197-763q54-54 127-85.5T480-880q83 0 156 31.5T763-763q54 54 85.5 127T880-480q0 83-31.5 156T763-197q-54 54-127 85.5T480-80Zm0-80q134 0 227-93t93-227q0-7-.5-14.5T799-507q-5 29-27 48t-52 19h-80q-33 0-56.5-23.5T560-520v-40H400v-80q0-33 23.5-56.5T480-720h40q0-23 12.5-40.5T563-789q-20-5-40.5-8t-42.5-3q-134 0-227 93t-93 227h200q66 0 113 47t47 113v40H400v110q20 5 39.5 7.5T480-160Z"/>
  </symbol>
  <symbol id="icon-dark-add_circle" viewBox="0 -960 960 960">
    <path d="M440-280h80v-160h160v-80H520v-160h-80v160H280v80h160v160Zm40 200q-83 0-156-31.5T197-197q-54-54-85.5-127T80-480q0-83 31.5-156T197-763q54-54 127-85.5T480-880q83 0 156 31.5T763-763q54 54 85.5 127T880-480q0 83-31.5 156T763-197q-54 54-127 85.5T480-80Zm0-80q134 0 227-93t93-227q0-134-93-227t-227-93q-134 0-227 93t-93 227q0 134 93 227t227 93Zm0-320Z"/>
  </symbol>
  <symbol id="icon-dark-documents" viewBox="0 -960 960 960">
    <path d="M130-189 81-546q-5-32 15.5-58t52.5-31l61 435 283-40h267q-8 21-24.5 35.5T695-187l-477 66q-33 5-58-15t-30-53Zm190-127q-33 0-56.5-23.5T240-396v-364q0-33 23.5-56.5T320-840h480q33 0 56.5 23.5T880-760v364q0 33-23.5 56.5T800-316H320Zm0-80h480v-364H320v364Zm0 0v-364 364ZM210-200Zm190-400h320v-80H400v80Zm0 120h200v-80H400v80Z"/>
  </symbol>
  <symbol id="icon-dark-group" viewBox="0 -960 960 960">
    <path d="M40-160v-112q0-34 17.5-62.5T104-378q62-31 126-46.5T360-440q66 0 130 15.5T616-378q29 15 46.5 43.5T680-272v112H40Zm720 0v-120q0-44-24.5-84.5T666-434q51 6 96 20.5t84 35.5q36 20 55 44.5t19 53.5v120H760ZM360-480q-66 0-113-47t-47-113q0-66 47-113t113-47q66 0 113 47t47 113q0 66-47 113t-113 47Zm400-160q0 66-47 113t-113 47q-11 0-28-2.5t-28-5.5q27-32 41.5-71t14.5-81q0-42-14.5-81T544-792q14-5 28-6.5t28-1.5q66 0 113 47t47 113ZM120-240h480v-32q0-11-5.5-20T580-306q-54-27-109-40.5T360-360q-56 0-111 13.5T140-306q-9 5-14.5 14t-5.5 20v32Zm240-320q33 0 56.5-23.5T440-640q0-33-23.5-56.5T360-720q-33 0-56.5 23.5T280-640q0 33 23.5 56.5T360-560Zm0 320Zm0-400Z"/>
  </symbol>
  <symbol id="icon-dark-more" viewBox="0 -960 960 960">
    <path d="M480-160q-33 0-56.5-23.5T400-240q0-33 23.5-56.5T480-320q33 0 56.5 23.5T560-240q0 33-23.5 56.5T480-160Zm0-240q-33 0-56.5-23.5T400-480q0-33 23.5-56.5T480-560q33 0 56.5 23.5T560-480q0 33-23.5 56.5T480-400Zm0-240q-33 0-56.5-23.5T400-720q0-33 23.5-56.5T480-800q33 0 56.5 23.5T560-720q0 33-23.5 56.5T480-640Z"/>
  </symbol>
  <symbol id="icon-dark-library-music" viewBox="0 -960 960 960">
    <path d="M500-360q42 0 71-29t29-71v-220h120v-80H560v220q-13-10-28-15t-32-5q-42 0-71 29t-29 71q0 42 29 71t71 29ZM320-240q-33 0-56.5-23.5T240-320v-480q0-33 23.5-56.5T320-880h480q33 0 56.5 23.5T880-800v480q0 33-23.5 56.5T800-240H320Zm0-80h480v-480H320v480ZM160-80q-33 0-56.5-23.5T80-160v-560h80v560h560v80H160Zm160-720v480-480Z"/>
  </symbol>
  <symbol id="icon-dark-public-off" viewBox="0 -960 960 960">
    <path d="M819-28 701-146q-48 32-103.5 49T480-80q-83 0-156-31.5T197-197q-54-54-85.5-127T80-480q0-62 17-117.5T146-701L27-820l57-57L876-85l-57 57ZM440-162v-78q-33 0-56.5-23.5T360-320v-40L168-552q-3 18-5.5 36t-2.5 36q0 121 79.5 212T440-162Zm374-99-58-58q21-37 32.5-77.5T800-480q0-98-54.5-179T600-776v16q0 33-23.5 56.5T520-680h-80v45L261-814q48-31 103-48.5T480-880q83 0 156 31.5T763-763q54 54 85.5 127T880-480q0 61-17.5 116T814-261Z"/>
  </symbol>
  <symbol id="icon-dark-delete" viewBox="0 -960 960 960">
    <path d="M280-120q-33 0-56.5-23.5T200-200v-520h-40v-80h200v-40h240v40h200v80h-40v520q0 33-23.5 56.5T680-120H280Zm400-600H280v520h400v-520ZM360-280h80v-360h-80v360Zm160 0h80v-360h-80v360ZM280-720v520-520Z"/>
  </symbol>
  <symbol id="icon-dark-silent" viewBox="0 -960 960 960">
    <path d="m616-320-56-56 104-104-104-104 56-56 104 104 104-104 56 56-104 104 104 104-56 56-104-104-104 104Zm-496-40v-240h160l200-200v640L280-360H120Zm280-246-86 86H200v80h114l86 86v-252ZM300-480Z"/>
  </symbol>
  <symbol id="icon-dark-replay" viewBox="0 0 24 24">
    <g>
      <rect fill="none" height="24" width="24"/>
      <rect fill="none" height="24" width="24"/>
      <rect fill="none" height="24" width="24"/>
    </g>
    <g>
      <g/>
      <path d="M12,5V1L7,6l5,5V7c3.31,0,6,2.69,6,6s-2.69,6-6,6s-6-2.69-6-6H4c0,4.42,3.58,8,8,8s8-3.58,8-8S16.42,5,12,5z"/>
    </g>
  </symbol>
  <symbol id="icon-dark-interpreter" viewBox="0 -960 960 960">
    <path d="M820-300q-25 0-42.5-17.5T760-360v-100q0-25 17.5-42.5T820-520q25 0 42.5 17.5T880-460v100q0 25-17.5 42.5T820-300Zm-20 140v-62q-51-8-85.5-46.5T680-360h40q0 42 29 71t71 29q42 0 71-29t29-71h40q0 53-34.5 91.5T840-222v62h-40ZM360-480q-66 0-113-47t-47-113q0-66 47-113t113-47q14 0 27.5 2t26.5 7q-26 31-40 69.5T360-640q0 43 14 81.5t40 69.5q-13 5-26.5 7t-27.5 2ZM40-160v-111q0-34 17-63t47-44q38-20 82.5-34.5T284-435q-40 28-62 71t-22 93v111H40Zm560-320q-66 0-113-47t-47-113q0-66 47-113t113-47q66 0 113 47t47 113q0 66-47 113t-113 47Zm0-80q33 0 56.5-23.5T680-640q0-33-23.5-56.5T600-720q-33 0-56.5 23.5T520-640q0 33 23.5 56.5T600-560ZM280-160v-111q0-34 17-63t47-44q51-26 115.5-44T600-440q12 0 23.5.5T646-438q-10 18-16.5 37.5T621-360h-21q-72 0-127.5 18T381-306q-10 5-15.5 14.5T360-271v31h287q15 26 37 46t49 34H280Zm320-480Zm0 400Z"/>
  </symbol>
  <symbol id="icon-dark-search" viewBox="0 -960 960 960">
    <path d="M784-120 532-372q-30 24-69 38t-83 14q-109 0-184.5-75.5T120-580q0-109 75.5-184.5T380-840q109 0 184.5 75.5T640-580q0 44-14 83t-38 69l252 252-56 56ZM380-400q75 0 127.5-52.5T560-580q0-75-52.5-127.5T380-760q-75 0-127.5 52.5T200-580q0 75 52.5 127.5T380-400Z"/>
  </symbol>
  <symbol id="icon-dark-bolt" viewBox="0 -960 960 960">
    <path d="m422-232 207-248H469l29-227-185 267h139l-30 208ZM320-80l40-280H160l360-520h80l-40 320h240L400-80h-80Zm151-390Z"/>
  </symbol>
  <symbol id="icon-dark-logout" viewBox="0 -960 960 960">
    <path d="M200-120q-33 0-56.5-23.5T120-200v-560q0-33 23.5-56.5T200-840h280v80H200v560h280v80H200Zm440-160-55-58 102-102H360v-80h327L585-622l55-58 200 200-200 200Z"/>
  </symbol>
  <symbol id="icon-dark-arrow-up" viewBox="0 -960 960 960">
    <path d="M440-160v-487L216-423l-56-57 320-320 320 320-56 57-224-224v487h-80Z"/>
  </symbol>
  <symbol id="icon-dark-edit" viewBox="0 -960 960 960">
    <path d="M200-200h57l391-391-57-57-391 391v57Zm-80 80v-170l528-527q12-11 26.5-17t30.5-6q16 0 31 6t26 18l55 56q12 11 17.5 26t5.5 30q0 16-5.5 30.5T817-647L290-120H120Zm640-584-56-56 56 56Zm-141 85-28-29 57 57-29-28Z"/>
  </symbol>
  <symbol id="icon-dark-history" viewBox="0 -960 960 960">
    <path d="M480-120q-138 0-240.5-91.5T122-440h82q14 104 92.5 172T480-200q117 0 198.5-81.5T760-480q0-117-81.5-198.5T480-760q-69 0-129 32t-101 88h110v80H120v-240h80v94q51-64 124.5-99T480-840q75 0 140.5 28.5t114 77q48.5 48.5 77 114T840-480q0 75-28.5 140.5t-77 114q-48.5 48.5-114 77T480-120Zm112-192L440-464v-216h80v184l128 128-56 56Z"/>
  </symbol>
  <symbol id="icon-dark-public" viewBox="0 -960 960 960">
    <path d="M480-80q-83 0-156-31.5T197-197q-54-54-85.5-127T80-480q0-83 31.5-156T197-763q54-54 127-85.5T480-880q83 0 156 31.5T763-763q54 54 85.5 127T880-480q0 83-31.5 156T763-197q-54 54-127 85.5T480-80Zm-40-82v-78q-33 0-56.5-23.5T360-320v-40L168-552q-3 18-5.5 36t-2.5 36q0 121 79.5 212T440-162Zm276-102q41-45 62.5-100.5T800-480q0-98-54.5-179T600-776v16q0 33-23.5 56.5T520-680h-80v80q0 17-11.5 28.5T400-560h-80v80h240q17 0 28.5 11.5T600-440v120h40q26 0 47 15.5t29 40.5Z"/>
  </symbol>
  <symbol id="icon-dark-download" viewBox="0 -960 960 960">
    <path d="M480-320 280-520l56-58 104 104v-326h80v326l104-104 56 58-200 200ZM240-160q-33 0-56.5-23.5T160-240v-120h80v120h480v-120h80v120q0 33-23.5 56.5T720-160H240Z"/>
  </symbol>
  <symbol id="icon-dark-radio" viewBox="0 -960 960 960">
    <path d="M160-80q-33 0-56.5-23.5T80-160v-480q0-25 13.5-45t36.5-29l506-206 26 66-330 134h468q33 0 56.5 23.5T880-640v480q0 33-23.5 56.5T800-80H160Zm0-80h640v-280H160v280Zm160-40q42 0 71-29t29-71q0-42-29-71t-71-29q-42 0-71 29t-29 71q0 42 29 71t71 29ZM160-520h480v-80h80v80h80v-120H160v120Zm0 360v-280 280Z"/>
  </symbol>
  <symbol id="icon-dark-dataset" viewBox="0 -960 960 960">
    <path d="M280-280h160v-160H280v160Zm240 0h160v-160H520v160ZM280-520h160v-160H280v160Zm240 0h160v-160H520v160ZM200-120q-33 0-56.5-23.5T120-200v-560q0-33 23.5-56.5T200-840h560q33 0 56.5 23.5T840-760v560q0 33-23.5 56.5T760-120H200Zm0-80h560v-560H200v560Zm0-560v560-560Z"/>
  </symbol>
  <symbol id="icon-dark-sync" viewBox="0 -960 960 960">
    <path d="M280-120 80-320l200-200 57 56-104 104h607v80H233l104 104-57 56Zm400-320-57-56 104-104H120v-80h607L623-784l57-56 200 200-200 200Z"/>
  </symbol>
  <symbol id="icon-dark-play-circle" viewBox="0 -960 960 960">
    <path d="m380-300 280-180-280-180v360ZM480-80q-83 0-156-31.5T197-197q-54-54-85.5-127T80-480q0-83 31.5-156T197-763q54-54 127-85.5T480-880q83 0 156 31.5T763-763q54 54 85.5 127T880-480q0 83-31.5 156T763-197q-54 54-127 85.5T480-80Zm0-80q134 0 227-93t93-227q0-134-93-227t-227-93q-134 0-227 93t-93 227q0 134 93 227t227 93Zm0-320Z"/>
  </symbol>
  <symbol id="icon-dark-arrow-down" viewBox="0 -960 960 960">
    <path d="M480-240 240-480l56-56 144 144v-368h80v368l144-144 56 56-240 240Z"/>
  </symbol>
  <symbol id="icon-dark-image" viewBox="0 -960 960 960">
    <path d="M200-120q-33 0-56.5-23.5T120-200v-560q0-33 23.5-56.5T200-840h560q33 0 56.5 23.5T840-760v560q0 33-23.5 56.5T760-120H200Zm0-80h560v-560H200v560Zm40-80h480L570-480 450-320l-90-120-120 160Zm-40 80v-560 560Z"/>
  </symbol>
  <symbol id="icon-dark-toggle_off" viewBox="0 -960 960 960">
    <path d="M280-240q-100 0-170-70T40-480q0-100 70-170t170-70h400q100 0 170 70t70 170q0 100-70 170t-170 70H280Zm0-80h400q66 0 113-47t47-113q0-66-47-113t-113-47H280q-66 0-113 47t-47 113q0 66 47 113t113 47Zm0-40q50 0 85-35t35-85q0-50-35-85t-85-35q-50 0-85 35t-35 85q0 50 35 85t85 35Zm200-120Z"/>
  </symbol>
  <symbol id="icon-dark-zoom-in" viewBox="0 -960 960 960">
    <path d="M784-120 532-372q-30 24-69 38t-83 14q-109 0-184.5-75.5T120-580q0-109 75.5-184.5T380-840q109 0 184.5 75.5T640-580q0 44-14 83t-38 69l252 252-56 56ZM380-400q75 0 127.5-52.5T560-580q0-75-52.5-127.5T380-760q-75 0-127.5 52.5T200-580q0 75 52.5 127.5T380-400Zm-40-60v-80h-80v-80h80v-80h80v80h80v80h-80v80h-80Z"/>
  </symbol>
  <symbol id="icon-dark-rule" viewBox="0 -960 960 960">
    <path d="m576-160-56-56 104-104-104-104 56-56 104 104 104-104 56 56-104 104 104 104-56 56-104-104-104 104Zm79-360L513-662l56-56 85 85 170-170 56 57-225 226ZM80-280v-80h360v80H80Zm0-320v-80h360v80H80Z"/>
  </symbol>
  <symbol id="icon-dark-download_for_offline" viewBox="0 -960 960 960">
    <path d="M280-280h400v-80H280v80Zm200-120 160-160-56-56-64 62v-166h-80v166l-64-62-56 56 160 160Zm0 320q-83 0-156-31.5T197-197q-54-54-85.5-127T80-480q0-83 31.5-156T197-763q54-54 127-85.5T480-880q83 0 156 31.5T763-763q54 54 85.5 127T880-480q0 83-31.5 156T763-197q-54 54-127 85.5T480-80Zm0-80q134 0 227-93t93-227q0-134-93-227t-227-93q-134 0-227 93t-93 227q0 134 93 227t227 93Zm0-320Z"/>
  </symbol>
  <symbol id="icon-dark-close" viewBox="0 -960 960 960">
    <path d="m256-200-56-56 224-224-224-224 56-56 224 224 224-224 56 56-224 224 224 224-56 56-224-224-224 224Z"/>
  </symbol>
  <symbol id="icon-dark-cancel" viewBox="0 -960 960 960">
    <path d="m336-280 144-144 144 144 56-56-144-144 144-144-56-56-144 144-144-144-56 56 144 144-144 144 56 56ZM480-80q-83 0-156-31.5T197-197q-54-54-85.5-127T80-480q0-83 31.5-156T197-763q54-54 127-85.5T480-880q83 0 156 31.5T763-763q54 54 85.5 127T880-480q0 83-31.5 156T763-197q-54 54-127 85.5T480-80Zm0-80q134 0 227-93t93-227q0-134-93-227t-227-93q-134 0-227 93t-93 227q0 134 93 227t227 93Zm0-320Z"/>
  </symbol>
  <symbol id="icon-dark-alert" viewBox="0 -960 960 960">
    <path d="m40-120 440-760 440 760H40Zm138-80h604L480-720 178-200Zm302-40q17 0 28.5-11.5T520-280q0-17-11.5-28.5T480-320q-17 0-28.5 11.5T440-280q0 17 11.5 28.5T480-240Zm-40-120h80v-200h-80v200Zm40-100Z"/>
  </symbol>
  <symbol id="icon-dark-error" viewBox="0 -960 960 960">
    <path d="M480-280q17 0 28.5-11.5T520-320q0-17-11.5-28.5T480-360q-17 0-28.5 11.5T440-320q0 17 11.5 28.5T480-280Zm-40-160h80v-240h-80v240Zm40 360q-83 0-156-31.5T197-197q-54-54-85.5-127T80-480q0-83 31.5-156T197-763q54-54 127-85.5T480-880q83 0 156 31.5T763-763q54 54 85.5 127T880-480q0 83-31.5 156T763-197q-54 54-127 85.5T480-80Zm0-80q134 0 227-93t93-227q0-134-93-227t-227-93q-134 0-227 93t-93 227q0 134 93 227t227 93Zm0-320Z"/>
  </symbol>
  <symbol id="icon-dark-calendar" viewBox="0 -960 960 960">
    <path d="M200-80q-33 0-56.5-23.5T120-160v-560q0-33 23.5-56.5T200-800h40v-80h80v80h320v-80h80v80h40q33 0 56.5 23.5T840-720v560q0 33-23.5 56.5T760-80H200Zm0-80h560v-400H200v400Zm0-480h560v-80H200v80Zm0 0v-80 80Zm280 240q-17 0-28.5-11.5T440-440q0-17 11.5-28.5T480-480q17 0 28.5 11.5T520-440q0 17-11.5 28.5T480-400Zm-160 0q-17 0-28.5-11.5T280-440q0-17 11.5-28.5T320-480q17 0 28.5 11.5T360-440q0 17-11.5 28.5T320-400Zm320 0q-17 0-28.5-11.5T600-440q0-17 11.5-28.5T640-480q17 0 28.5 11.5T680-440q0 17-11.5 28.5T640-400ZM480-240q-17 0-28.5-11.5T440-280q0-17 11.5-28.5T480-320q17 0 28.5 11.5T520-280q0 17-11.5 28.5T480-240Zm-160 0q-17 0-28.5-11.5T280-280q0-17 11.5-28.5T320-320q17 0 28.5 11.5T360-280q0 17-11.5 28.5T320-240Zm320 0q-17 0-28.5-11.5T600-280q0-17 11.5-28.5T640-320q17 0 28.5 11.5T680-280q0 17-11.5 28.5T640-240Z"/>
  </symbol>
  <symbol id="icon-dark-back." viewBox="0 -960 960 960">
    <path d="m313-440 224 224-57 56-320-320 320-320 57 56-224 224h487v80H313Z"/>
  </symbol>
  <symbol id="icon-dark-arrow_back" viewBox="0 -960 960 960">
    <path d="m313-440 224 224-57 56-320-320 320-320 57 56-224 224h487v80H313Z"/>
  </symbol>
  <symbol id="icon-dark-rerun" viewBox="0 -960 960 960">
    <path d="M480-80q-75 0-140.5-28.5t-114-77q-48.5-48.5-77-114T120-440h80q0 117 81.5 198.5T480-160q117 0 198.5-81.5T760-440q0-117-81.5-198.5T480-720h-6l62 62-56 58-160-160 160-160 56 58-62 62h6q75 0 140.5 28.5t114 77q48.5 48.5 77 114T840-440q0 75-28.5 140.5t-77 114q-48.5 48.5-114 77T480-80Z"/>
  </symbol>
  <symbol id="icon-dark-more-horiz" viewBox="0 -960 960 960">
    <path d="M240-400q-33 0-56.5-23.5T160-480q0-33 23.5-56.5T240-560q33 0 56.5 23.5T320-480q0 33-23.5 56.5T240-400Zm240 0q-33 0-56.5-23.5T400-480q0-33 23.5-56.5T480-560q33 0 56.5 23.5T560-480q0 33-23.5 56.5T480-400Zm240 0q-33 0-56.5-23.5T640-480q0-33 23.5-56.5T720-560q33 0 56.5 23.5T800-480q0 33-23.5 56.5T720-400Z"/>
  </symbol>
  <symbol id="icon-dark-navigate_next" viewBox="0 0 24 24">
    <path d="M0 0h24v24H0V0z" fill="none"/>
    <path d="M10.02 6L8.61 7.41 13.19 12l-4.58 4.59L10.02 18l6-6-6-6z"/>
  </symbol>
  <symbol id="icon-dark-home" viewBox="0 -960 960 960">
    <path d="M240-200h120v-240h240v240h120v-360L480-740 240-560v360Zm-80 80v-480l320-240 320 240v480H520v-240h-80v240H160Zm320-350Z"/>
  </symbol>
  <symbol id="icon-dark-mic_off" viewBox="0 0 24 24">
    <path d="M0 0h24v24H0V0z" fill="none"/>
    <path d="M10.8 4.9c0-.66.54-1.2 1.2-1.2s1.2.54 1.2 1.2l-.01 3.91L15 10.6V5c0-1.66-1.34-3-3-3-1.54 0-2.79 1.16-2.96 2.65l1.76 1.76V4.9zM19 11h-1.7c0 .58-.1 1.13-.27 1.64l1.27 1.27c.44-.88.7-1.87.7-2.91zM4.41 2.86L3 4.27l6 6V11c0 1.66 1.34 3 3 3 .23 0 .44-.03.65-.08l1.66 1.66c-.71.33-1.5.52-2.31.52-2.76 0-5.3-2.1-5.3-5.1H5c0 3.41 2.72 6.23 6 6.72V21h2v-3.28c.91-.13 1.77-.45 2.55-.9l4.2 4.2 1.41-1.41L4.41 2.86z"/>
  </symbol>
  <symbol id="icon-dark-publish" viewBox="0 -960 960 960">
    <path d="M440-160v-326L336-382l-56-58 200-200 200 200-56 58-104-104v326h-80ZM160-600v-120q0-33 23.5-56.5T240-800h480q33 0 56.5 23.5T800-720v120h-80v-120H240v120h-80Z"/>
  </symbol>
  <symbol id="icon-dark-settings" viewBox="0 -960 960 960">
    <path d="m370-80-16-128q-13-5-24.5-12T307-235l-119 50L78-375l103-78q-1-7-1-13.5v-27q0-6.5 1-13.5L78-585l110-190 119 50q11-8 23-15t24-12l16-128h220l16 128q13 5 24.5 12t22.5 15l119-50 110 190-103 78q1 7 1 13.5v27q0 6.5-2 13.5l103 78-110 190-118-50q-11 8-23 15t-24 12L590-80H370Zm70-80h79l14-106q31-8 57.5-23.5T639-327l99 41 39-68-86-65q5-14 7-29.5t2-31.5q0-16-2-31.5t-7-29.5l86-65-39-68-99 42q-22-23-48.5-38.5T533-694l-13-106h-79l-14 106q-31 8-57.5 23.5T321-633l-99-41-39 68 86 64q-5 15-7 30t-2 32q0 16 2 31t7 30l-86 65 39 68 99-42q22 23 48.5 38.5T427-266l13 106Zm42-180q58 0 99-41t41-99q0-58-41-99t-99-41q-59 0-99.5 41T342-480q0 58 40.5 99t99.5 41Zm-2-140Z"/>
  </symbol>
  <symbol id="icon-dark-open" viewBox="0 -960 960 960">
    <path d="M240-80q-33 0-56.5-23.5T160-160v-640q0-33 23.5-56.5T240-880h320l240 240v240h-80v-200H520v-200H240v640h360v80H240Zm638 15L760-183v89h-80v-226h226v80h-90l118 118-56 57Zm-638-95v-640 640Z"/>
  </symbol>
  <symbol id="icon-dark-download-for-offline" viewBox="0 -960 960 960">
    <path d="M280-280h400v-80H280v80Zm200-120 160-160-56-56-64 62v-166h-80v166l-64-62-56 56 160 160Zm0 320q-83 0-156-31.5T197-197q-54-54-85.5-127T80-480q0-83 31.5-156T197-763q54-54 127-85.5T480-880q83 0 156 31.5T763-763q54 54 85.5 127T880-480q0 83-31.5 156T763-197q-54 54-127 85.5T480-80Zm0-80q134 0 227-93t93-227q0-134-93-227t-227-93q-134 0-227 93t-93 227q0 134 93 227t227 93Zm0-320Z"/>
  </symbol>
  <symbol id="icon-dark-stop" viewBox="0 -960 960 960">
    <path d="M320-320h320v-320H320v320ZM480-80q-83 0-156-31.5T197-197q-54-54-85.5-127T80-480q0-83 31.5-156T197-763q54-54 127-85.5T480-880q83 0 156 31.5T763-763q54 54 85.5 127T880-480q0 83-31.5 156T763-197q-54 54-127 85.5T480-80Zm0-80q134 0 227-93t93-227q0-134-93-227t-227-93q-134 0-227 93t-93 227q0 134 93 227t227 93Zm0-320Z"/>
  </symbol>
  <symbol id="icon-dark-audio-file" viewBox="0 -960 960 960">
    <path d="M430-200q38 0 64-26t26-64v-150h120v-80H480v155q-11-8-23.5-11.5T430-380q-38 0-64 26t-26 64q0 38 26 64t64 26ZM240-80q-33 0-56.5-23.5T160-160v-640q0-33 23.5-56.5T240-880h320l240 240v480q0 33-23.5 56.5T720-80H240Zm280-520v-200H240v640h480v-440H520ZM240-800v200-200 640-640Z"/>
  </symbol>
  <symbol id="icon-dark-arrow_up" viewBox="0 -960 960 960">
    <path d="M480-528 296-344l-56-56 240-240 240 240-56 56-184-184Z"/>
  </symbol>
  <symbol id="icon-dark-save" viewBox="0 -960 960 960">
    <path d="M840-680v480q0 33-23.5 56.5T760-120H200q-33 0-56.5-23.5T120-200v-560q0-33 23.5-56.5T200-840h480l160 160Zm-80 34L646-760H200v560h560v-446ZM480-240q50 0 85-35t35-85q0-50-35-85t-85-35q-50 0-85 35t-35 85q0 50 35 85t85 35ZM240-560h360v-160H240v160Zm-40-86v446-560 114Z"/>
  </symbol>
  <symbol id="icon-dark-navigate-next" viewBox="0 0 24 24">
    <path d="M0 0h24v24H0V0z" fill="none"/>
    <path d="M10.02 6L8.61 7.41 13.19 12l-4.58 4.59L10.02 18l6-6-6-6z"/>
  </symbol>
  <symbol id="icon-dark-create" viewBox="0 -960 960 960">
    <path d="M560-320h80v-80h80v-80h-80v-80h-80v80h-80v80h80v80ZM160-160q-33 0-56.5-23.5T80-240v-480q0-33 23.5-56.5T160-800h240l80 80h320q33 0 56.5 23.5T880-640v400q0 33-23.5 56.5T800-160H160Zm0-80h640v-400H447l-80-80H160v480Zm0 0v-480 480Z"/>
  </symbol>
  <symbol id="icon-dark-preview" viewBox="0 -960 960 960">
    <path d="M200-120q-33 0-56.5-23.5T120-200v-560q0-33 23.5-56.5T200-840h560q33 0 56.5 23.5T840-760v560q0 33-23.5 56.5T760-120H200Zm0-80h560v-480H200v480Zm280-80q-82 0-146.5-44.5T240-440q29-71 93.5-115.5T480-600q82 0 146.5 44.5T720-440q-29 71-93.5 115.5T480-280Zm0-60q56 0 102-26.5t72-73.5q-26-47-72-73.5T480-540q-56 0-102 26.5T306-440q26 47 72 73.5T480-340Zm0-100Zm0 60q25 0 42.5-17.5T540-440q0-25-17.5-42.5T480-500q-25 0-42.5 17.5T420-440q0 25 17.5 42.5T480-380Z"/>
  </symbol>
  <symbol id="icon-dark-mic" viewBox="0 -960 960 960">
    <path d="M480-400q-50 0-85-35t-35-85v-240q0-50 35-85t85-35q50 0 85 35t35 85v240q0 50-35 85t-85 35Zm0-240Zm-40 520v-123q-104-14-172-93t-68-184h80q0 83 58.5 141.5T480-320q83 0 141.5-58.5T680-520h80q0 105-68 184t-172 93v123h-80Zm40-360q17 0 28.5-11.5T520-520v-240q0-17-11.5-28.5T480-800q-17 0-28.5 11.5T440-760v240q0 17 11.5 28.5T480-480Z"/>
  </symbol>
  <symbol id="icon-dark-key-down" viewBox="0 -960 960 960">
    <path d="M480-200 240-440l56-56 184 183 184-183 56 56-240 240Zm0-240L240-680l56-56 184 183 184-183 56 56-240 240Z"/>
  </symbol>
  <symbol id="icon-dark-activity" viewBox="0 -960 960 960">
    <path d="M720 0 600-120v-60L316-464q-9 2-18 3t-18 1v-88q50 2 102-21.5t84-58.5l56-62q13-15 30.5-22.5T590-720q38 0 64 26t26 64v230q0 26-9.5 47.5T644-314L500-456v-92q-20 17-43 31t-49 25l252 252h60l120 120L720 0ZM220-140l-60-60 180-180 100 100h-80L220-140Zm380-620q-33 0-56.5-23.5T520-840q0-33 23.5-56.5T600-920q33 0 56.5 23.5T680-840q0 33-23.5 56.5T600-760Z"/>
  </symbol>
  <symbol id="icon-dark-sort" viewBox="0 -960 960 960">
    <path d="M120-240v-80h240v80H120Zm0-200v-80h480v80H120Zm0-200v-80h720v80H120Z"/>
  </symbol>
  <symbol id="icon-dark-back" viewBox="0 -960 960 960">
    <path d="m313-440 224 224-57 56-320-320 320-320 57 56-224 224h487v80H313Z"/>
  </symbol>
  <symbol id="icon-dark-warning" viewBox="0 -960 960 960">
    <path d="m40-120 440-760 440 760H40Zm138-80h604L480-720 178-200Zm302-40q17 0 28.5-11.5T520-280q0-17-11.5-28.5T480-320q-17 0-28.5 11.5T440-280q0 17 11.5 28.5T480-240Zm-40-120h80v-200h-80v200Zm40-100Z"/>
  </symbol>
  <symbol id="icon-dark-add-circle" viewBox="0 -960 960 960">
    <path d="M440-280h80v-160h160v-80H520v-160h-80v160H280v80h160v160Zm40 200q-83 0-156-31.5T197-197q-54-54-85.5-127T80-480q0-83 31.5-156T197-763q54-54 127-85.5T480-880q83 0 156 31.5T763-763q54 54 85.5 127T880-480q0 83-31.5 156T763-197q-54 54-127 85.5T480-80Zm0-80q134 0 227-93t93-227q0-134-93-227t-227-93q-134 0-227 93t-93 227q0 134 93 227t227 93Zm0-320Z"/>
  </symbol>
  <symbol id="icon-dark-build" viewBox="0 -960 960 960">
    <path d="M686-132 444-376q-20 8-40.5 12t-43.5 4q-100 0-170-70t-70-170q0-36 10-68.5t28-61.5l146 146 72-72-146-146q29-18 61.5-28t68.5-10q100 0 170 70t70 170q0 23-4 43.5T584-516l244 242q12 12 12 29t-12 29l-84 84q-12 12-29 12t-29-12Zm29-85 27-27-256-256q18-20 26-46.5t8-53.5q0-60-38.5-104.5T386-758l74 74q12 12 12 28t-12 28L332-500q-12 12-28 12t-28-12l-74-74q9 57 53.5 95.5T360-440q26 0 52-8t47-25l256 256ZM472-488Z"/>
  </symbol>
  <symbol id="icon-dark-draft" viewBox="0 -960 960 960">
    <path d="M240-80q-33 0-56.5-23.5T160-160v-640q0-33 23.5-56.5T240-880h320l240 240v480q0 33-23.5 56.5T720-80H240Zm280-520v-200H240v640h480v-440H520ZM240-800v200-200 640-640Z"/>
  </symbol>
  <symbol id="icon-dark-broken-image" viewBox="0 -960 960 960">
    <path d="M200-120q-33 0-56.5-23.5T120-200v-560q0-33 23.5-56.5T200-840h560q33 0 56.5 23.5T840-760v560q0 33-23.5 56.5T760-120H200Zm40-337 160-160 160 160 160-160 40 40v-183H200v263l40 40Zm-40 257h560v-264l-40-40-160 160-160-160-160 160-40-40v184Zm0 0v-264 80-376 560Z"/>
  </symbol>
  <symbol id="icon-dark-docuemnts" viewBox="0 -960 960 960">
    <path d="M130-189 81-546q-5-32 15.5-58t52.5-31l61 435 283-40h267q-8 21-24.5 35.5T695-187l-477 66q-33 5-58-15t-30-53Zm190-127q-33 0-56.5-23.5T240-396v-364q0-33 23.5-56.5T320-840h480q33 0 56.5 23.5T880-760v364q0 33-23.5 56.5T800-316H320Zm0-80h480v-364H320v364Zm0 0v-364 364ZM210-200Zm190-400h320v-80H400v80Zm0 120h200v-80H400v80Z"/>
  </symbol>
  <symbol id="icon-dark-block" viewBox="0 -960 960 960">
    <path d="M480-80q-83 0-156-31.5T197-197q-54-54-85.5-127T80-480q0-83 31.5-156T197-763q54-54 127-85.5T480-880q83 0 156 31.5T763-763q54 54 85.5 127T880-480q0 83-31.5 156T763-197q-54 54-127 85.5T480-80Zm0-80q54 0 104-17.5t92-50.5L228-676q-33 42-50.5 92T160-480q0 134 93 227t227 93Zm252-124q33-42 50.5-92T800-480q0-134-93-227t-227-93q-54 0-104 17.5T284-732l448 448ZM480-480Z"/>
  </symbol>
  <symbol id="icon-dark-playlist" viewBox="0 -960 960 960">
    <path d="M240-440h360v-80H240v80Zm0-120h360v-80H240v80Zm-80 400q-33 0-56.5-23.5T80-240v-480q0-33 23.5-56.5T160-800h640q33 0 56.5 23.5T880-720v480q0 33-23.5 56.5T800-160H160Zm0-80h640v-480H160v480Zm0 0v-480 480Z"/>
  </symbol>
  <symbol id="icon-dark-assign" viewBox="0 -960 960 960">
    <path d="M200-120q-33 0-56.5-23.5T120-200v-560q0-33 23.5-56.5T200-840h168q13-36 43.5-58t68.5-22q38 0 68.5 22t43.5 58h168q33 0 56.5 23.5T840-760v268q-19-9-39-15.5t-41-9.5v-243H200v560h242q3 22 9.5 42t15.5 38H200Zm0-120v40-560 243-3 280Zm80-40h163q3-21 9.5-41t14.5-39H280v80Zm0-160h244q32-30 71.5-50t84.5-27v-3H280v80Zm0-160h400v-80H280v80Zm200-190q13 0 21.5-8.5T510-820q0-13-8.5-21.5T480-850q-13 0-21.5 8.5T450-820q0 13 8.5 21.5T480-790ZM720-40q-83 0-141.5-58.5T520-240q0-83 58.5-141.5T720-440q83 0 141.5 58.5T920-240q0 83-58.5 141.5T720-40Zm-20-80h40v-100h100v-40H740v-100h-40v100H600v40h100v100Z"/>
  </symbol>
  <symbol id="icon-dark-toggle_on" viewBox="0 -960 960 960">
    <path d="M280-240q-100 0-170-70T40-480q0-100 70-170t170-70h400q100 0 170 70t70 170q0 100-70 170t-170 70H280Zm0-80h400q66 0 113-47t47-113q0-66-47-113t-113-47H280q-66 0-113 47t-47 113q0 66 47 113t113 47Zm400-40q50 0 85-35t35-85q0-50-35-85t-85-35q-50 0-85 35t-35 85q0 50 35 85t85 35ZM480-480Z"/>
  </symbol>
  <symbol id="icon-dark-mic-gear" viewBox="0 -960 960 960">
    <path d="M400-400q-50 0-85-35t-35-85v-240q0-50 35-85t85-35q50 0 85 35t35 85v240q0 50-35 85t-85 35Zm0-80q17 0 28.5-11.5T440-520v-240q0-17-11.5-28.5T400-800q-17 0-28.5 11.5T360-760v240q0 17 11.5 28.5T400-480Zm40 360h-80v-123q-104-14-172-93t-68-184h80q0 83 58.5 141.5T400-320q11 0 20.5-1t19.5-3v204Zm-40-520ZM640-80l-12-60q-12-5-22.5-10.5T584-164l-58 18-40-68 46-40q-2-13-2-26t2-26l-46-40 40-68 58 18q11-8 21.5-13.5T628-420l12-60h80l12 60q12 5 22.5 10.5T776-396l58-18 40 68-46 40q2 13 2 26t-2 26l46 40-40 68-58-18q-11 8-21.5 13.5T732-140l-12 60h-80Zm40-120q33 0 56.5-23.5T760-280q0-33-23.5-56.5T680-360q-33 0-56.5 23.5T600-280q0 33 23.5 56.5T680-200Z"/>
  </symbol>
  <symbol id="icon-dark-upload" viewBox="0 -960 960 960">
    <path d="M440-320v-326L336-542l-56-58 200-200 200 200-56 58-104-104v326h-80ZM240-160q-33 0-56.5-23.5T160-240v-120h80v120h480v-120h80v120q0 33-23.5 56.5T720-160H240Z"/>
  </symbol>
  <symbol id="icon-dark-login" viewBox="0 -960 960 960">
    <path d="M480-120v-80h280v-560H480v-80h280q33 0 56.5 23.5T840-760v560q0 33-23.5 56.5T760-120H480Zm-80-160-55-58 102-102H120v-80h327L345-622l55-58 200 200-200 200Z"/>
  </symbol>
  <symbol id="icon-dark-private" viewBox="0 -960 960 960">
    <path d="M240-80q-33 0-56.5-23.5T160-160v-400q0-33 23.5-56.5T240-640h40v-80q0-83 58.5-141.5T480-920q83 0 141.5 58.5T680-720v80h40q33 0 56.5 23.5T800-560v400q0 33-23.5 56.5T720-80H240Zm0-80h480v-400H240v400Zm240-120q33 0 56.5-23.5T560-360q0-33-23.5-56.5T480-440q-33 0-56.5 23.5T400-360q0 33 23.5 56.5T480-280ZM360-640h240v-80q0-50-35-85t-85-35q-50 0-85 35t-35 85v80ZM240-160v-400 400Z"/>
  </symbol>
  <symbol id="icon-dark-music" viewBox="0 -960 960 960">
    <path d="M400-120q-66 0-113-47t-47-113q0-66 47-113t113-47q23 0 42.5 5.5T480-418v-422h240v160H560v400q0 66-47 113t-113 47Z"/>
  </symbol>
  <symbol id="icon-dark-processing" viewBox="0 0 24 24">
    <g>
      <rect fill="none" height="24" width="24"/>
      <path d="M17,12c-2.76,0-5,2.24-5,5s2.24,5,5,5c2.76,0,5-2.24,5-5S19.76,12,17,12z M18.65,19.35l-2.15-2.15V14h1v2.79l1.85,1.85 L18.65,19.35z M18,3h-3.18C14.4,1.84,13.3,1,12,1S9.6,1.84,9.18,3H6C4.9,3,4,3.9,4,5v15c0,1.1,0.9,2,2,2h6.11 c-0.59-0.57-1.07-1.25-1.42-2H6V5h2v3h8V5h2v5.08c0.71,0.1,1.38,0.31,2,0.6V5C20,3.9,19.1,3,18,3z M12,5c-0.55,0-1-0.45-1-1 c0-0.55,0.45-1,1-1c0.55,0,1,0.45,1,1C13,4.55,12.55,5,12,5z"/>
    </g>
  </symbol>
  <symbol id="icon-dark-key-left" viewBox="0 -960 960 960">
    <path d="M440-240 200-480l240-240 56 56-183 184 183 184-56 56Zm264 0L464-480l240-240 56 56-183 184 183 184-56 56Z"/>
  </symbol>
  <symbol id="icon-dark-mix" viewBox="0 -960 960 960">
    <path d="M200-160v-280h-80v-80h240v80h-80v280h-80Zm0-440v-200h80v200h-80Zm160 0v-80h80v-120h80v120h80v80H360Zm80 440v-360h80v360h-80Zm240 0v-120h-80v-80h240v80h-80v120h-80Zm0-280v-360h80v360h-80Z"/>
  </symbol>
  <symbol id="icon-dark-help" viewBox="0 -960 960 960">
    <path d="M478-240q21 0 35.5-14.5T528-290q0-21-14.5-35.5T478-340q-21 0-35.5 14.5T428-290q0 21 14.5 35.5T478-240Zm-36-154h74q0-33 7.5-52t42.5-52q26-26 41-49.5t15-56.5q0-56-41-86t-97-30q-57 0-92.5 30T342-618l66 26q5-18 22.5-39t53.5-21q32 0 48 17.5t16 38.5q0 20-12 37.5T506-526q-44 39-54 59t-10 73Zm38 314q-83 0-156-31.5T197-197q-54-54-85.5-127T80-480q0-83 31.5-156T197-763q54-54 127-85.5T480-880q83 0 156 31.5T763-763q54 54 85.5 127T880-480q0 83-31.5 156T763-197q-54 54-127 85.5T480-80Zm0-80q134 0 227-93t93-227q0-134-93-227t-227-93q-134 0-227 93t-93 227q0 134 93 227t227 93Zm0-320Z"/>
  </symbol>
  <symbol id="icon-dark-copy" viewBox="0 -960 960 960">
    <path d="M360-240q-33 0-56.5-23.5T280-320v-480q0-33 23.5-56.5T360-880h360q33 0 56.5 23.5T800-800v480q0 33-23.5 56.5T720-240H360Zm0-80h360v-480H360v480ZM200-80q-33 0-56.5-23.5T120-160v-560h80v560h440v80H200Zm160-240v-480 480Z"/>
  </symbol>
  <symbol id="icon-dark-navigate-before" viewBox="0 0 24 24">
    <path d="M0 0h24v24H0V0z" fill="none"/>
    <path d="M15.61 7.41L14.2 6l-6 6 6 6 1.41-1.41L11.03 12l4.58-4.59z"/>
  </symbol>
  <symbol id="icon-dark-filter_list" viewBox="0 -960 960 960">
    <path d="M400-240v-80h160v80H400ZM240-440v-80h480v80H240ZM120-640v-80h720v80H120Z"/>
  </symbol>
  <symbol id="icon-dark-navigate_before" viewBox="0 0 24 24">
    <path d="M0 0h24v24H0V0z" fill="none"/>
    <path d="M15.61 7.41L14.2 6l-6 6 6 6 1.41-1.41L11.03 12l4.58-4.59z"/>
  </symbol>
  <symbol id="icon-dark-add" viewBox="0 -960 960 960">
    <path d="M440-120v-320H120v-80h320v-320h80v320h320v80H520v320h-80Z"/>
  </symbol>
  <symbol id="icon-dark-filter-list" viewBox="0 -960 960 960">
    <path d="M400-240v-80h160v80H400ZM240-440v-80h480v80H240ZM120-640v-80h720v80H120Z"/>
  </symbol>
  <symbol id="icon-dark-edit-audio" viewBox="0 -960 960 960">
    <path d="M240-80 80-240l160-160 57 56-64 64h494l-63-64 56-56 160 160L720-80l-57-56 64-64H233l63 64-56 56Zm200-360v-480h80v480h-80Zm-160-80v-320h80v320h-80Zm320 0v-320h80v320h-80ZM120-620v-120h80v120h-80Zm640 0v-120h80v120h-80Z"/>
  </symbol>
  <symbol id="icon-dark-json" viewBox="0 -960 960 960">
    <path d="M190-360h70q17 0 28.5-11.5T300-400v-200h-60v190h-40v-50h-50v60q0 17 11.5 28.5T190-360Zm177 0h60q17 0 28.5-11.5T467-400v-60q0-17-11.5-28.5T427-500h-50v-50h40v20h50v-30q0-17-11.5-28.5T427-600h-60q-17 0-28.5 11.5T327-560v60q0 17 11.5 28.5T367-460h50v50h-40v-20h-50v30q0 17 11.5 28.5T367-360Zm176-60v-120h40v120h-40Zm-10 60h60q17 0 28.5-11.5T633-400v-160q0-17-11.5-28.5T593-600h-60q-17 0-28.5 11.5T493-560v160q0 17 11.5 28.5T533-360Zm127 0h50v-105l40 105h50v-240h-50v105l-40-105h-50v240ZM120-160q-33 0-56.5-23.5T40-240v-480q0-33 23.5-56.5T120-800h720q33 0 56.5 23.5T920-720v480q0 33-23.5 56.5T840-160H120Zm0-80h720v-480H120v480Zm0 0v-480 480Z"/>
  </symbol>
  <symbol id="icon-dark-toggle-on" viewBox="0 -960 960 960">
    <path d="M280-240q-100 0-170-70T40-480q0-100 70-170t170-70h400q100 0 170 70t70 170q0 100-70 170t-170 70H280Zm0-80h400q66 0 113-47t47-113q0-66-47-113t-113-47H280q-66 0-113 47t-47 113q0 66 47 113t113 47Zm400-40q50 0 85-35t35-85q0-50-35-85t-85-35q-50 0-85 35t-35 85q0 50 35 85t85 35ZM480-480Z"/>
  </symbol>
  <symbol id="icon-dark-mic-off" viewBox="0 -960 960 960">
    <path d="m710-362-58-58q14-23 21-48t7-52h80q0 44-13 83.5T710-362ZM480-594Zm112 112-72-72v-206q0-17-11.5-28.5T480-800q-17 0-28.5 11.5T440-760v126l-80-80v-46q0-50 35-85t85-35q50 0 85 35t35 85v240q0 11-2.5 20t-5.5 18ZM440-120v-123q-104-14-172-93t-68-184h80q0 83 57.5 141.5T480-320q34 0 64.5-10.5T600-360l57 57q-29 23-63.5 39T520-243v123h-80Zm352 64L56-792l56-56 736 736-56 56Z"/>
  </symbol>
  <symbol id="icon-dark-accounts" viewBox="0 -960 960 960">
    <path d="M400-480q-66 0-113-47t-47-113q0-66 47-113t113-47q66 0 113 47t47 113q0 66-47 113t-113 47ZM80-160v-112q0-33 17-62t47-44q51-26 115-44t141-18h14q6 0 12 2-8 18-13.5 37.5T404-360h-4q-71 0-127.5 18T180-306q-9 5-14.5 14t-5.5 20v32h252q6 21 16 41.5t22 38.5H80Zm560 40-12-60q-12-5-22.5-10.5T584-204l-58 18-40-68 46-40q-2-14-2-26t2-26l-46-40 40-68 58 18q11-8 21.5-13.5T628-460l12-60h80l12 60q12 5 22.5 11t21.5 15l58-20 40 70-46 40q2 12 2 25t-2 25l46 40-40 68-58-18q-11 8-21.5 13.5T732-180l-12 60h-80Zm40-120q33 0 56.5-23.5T760-320q0-33-23.5-56.5T680-400q-33 0-56.5 23.5T600-320q0 33 23.5 56.5T680-240ZM400-560q33 0 56.5-23.5T480-640q0-33-23.5-56.5T400-720q-33 0-56.5 23.5T320-640q0 33 23.5 56.5T400-560Zm0-80Zm12 400Z"/>
  </symbol>
  <symbol id="icon-dark-pause" viewBox="0 -960 960 960">
    <path d="M360-320h80v-320h-80v320Zm160 0h80v-320h-80v320ZM480-80q-83 0-156-31.5T197-197q-54-54-85.5-127T80-480q0-83 31.5-156T197-763q54-54 127-85.5T480-880q83 0 156 31.5T763-763q54 54 85.5 127T880-480q0 83-31.5 156T763-197q-54 54-127 85.5T480-80Zm0-80q134 0 227-93t93-227q0-134-93-227t-227-93q-134 0-227 93t-93 227q0 134 93 227t227 93Zm0-320Z"/>
  </symbol>
  <symbol id="icon-dark-more_horiz" viewBox="0 -960 960 960">
    <path d="M240-400q-33 0-56.5-23.5T160-480q0-33 23.5-56.5T240-560q33 0 56.5 23.5T320-480q0 33-23.5 56.5T240-400Zm240 0q-33 0-56.5-23.5T400-480q0-33 23.5-56.5T480-560q33 0 56.5 23.5T560-480q0 33-23.5 56.5T480-400Zm240 0q-33 0-56.5-23.5T640-480q0-33 23.5-56.5T720-560q33 0 56.5 23.5T800-480q0 33-23.5 56.5T720-400Z"/>
  </symbol>
  <symbol id="icon-dark-blocked" viewBox="0 -960 960 960">
    <path d="M280-440h400v-80H280v80ZM480-80q-83 0-156-31.5T197-197q-54-54-85.5-127T80-480q0-83 31.5-156T197-763q54-54 127-85.5T480-880q83 0 156 31.5T763-763q54 54 85.5 127T880-480q0 83-31.5 156T763-197q-54 54-127 85.5T480-80Zm0-80q134 0 227-93t93-227q0-134-93-227t-227-93q-134 0-227 93t-93 227q0 134 93 227t227 93Zm0-320Z"/>
  </symbol>
  <symbol id="icon-dark-public_off" viewBox="0 -960 960 960">
    <path d="M819-28 701-146q-48 32-103.5 49T480-80q-83 0-156-31.5T197-197q-54-54-85.5-127T80-480q0-62 17-117.5T146-701L27-820l57-57L876-85l-57 57ZM440-162v-78q-33 0-56.5-23.5T360-320v-40L168-552q-3 18-5.5 36t-2.5 36q0 121 79.5 212T440-162Zm374-99-58-58q21-37 32.5-77.5T800-480q0-98-54.5-179T600-776v16q0 33-23.5 56.5T520-680h-80v45L261-814q48-31 103-48.5T480-880q83 0 156 31.5T763-763q54 54 85.5 127T880-480q0 61-17.5 116T814-261Z"/>
  </symbol>
</svg>
