<svg xmlns="http://www.w3.org/2000/svg" style="display:none">

  <!-- Navigation -->
  <symbol id="icon-arrow-back" viewBox="0 0 24 24">
    <path d="M20 11H7.83l5.59-5.59L12 4l-8 8 8 8 1.41-1.41L7.83 13H20z"/>
  </symbol>

  <symbol id="icon-calendar" viewBox="0 0 24 24">
    <path d="M19 4h-1V2h-2v2H8V2H6v2H5c-1.1 
      0-2 .9-2 2v14c0 1.1.9 2 
      2 2h14c1.1 0 2-.9 
      2-2V6c0-1.1-.9-2-2-2zm0 
      16H5V9h14v11z"/>
  </symbol>

  <symbol id="icon-list" viewBox="0 0 24 24">
    <path d="M3 13h2v-2H3v2zm0 4h2v-2H3v2zm0-8h2V7H3v2zm4 
      4h14v-2H7v2zm0 4h14v-2H7v2zm0-10v2h14V7H7z"/>
  </symbol>

  <symbol id="icon-more" viewBox="0 0 24 24">
    <path d="M12 8a2 2 0 110-4 2 2 0 010 
      4zm0 2a2 2 0 110 4 2 2 0 
      010-4zm0 6a2 2 0 110 
      4 2 2 0 010-4z"/>
  </symbol>

  <symbol id="icon-search" viewBox="0 0 24 24">
    <path d="M15.5 14h-.79l-.28-.27A6.471 
      6.471 0 0016 9.5 6.5 
      6.5 0 109.5 16c1.61 0 
      3.09-.59 4.23-1.57l.27.28v.79l5 
      4.99L20.49 19l-4.99-5z"/>
  </symbol>

  <!-- Actions -->
  <symbol id="icon-save" viewBox="0 0 24 24">
    <path d="M17 3H5a2 2 0 00-2 2v14a2 
      2 0 002 2h14a2 2 0 002-2V7l-4-4zm-5 
      16a3 3 0 110-6 3 3 0 010 
      6zm3-10H5V5h10v4z"/>
  </symbol>

  <symbol id="icon-upload" viewBox="0 0 24 24">
    <path d="M5 20h14v-2H5v2zm7-18l-5.5 
      5.5h3.5V15h4V7.5h3.5L12 2z"/>
  </symbol>

  <symbol id="icon-delete" viewBox="0 0 24 24">
    <path d="M6 19a2 2 0 002 2h8a2 
      2 0 002-2V7H6v12zm13-14h-3.5l-1-1h-5l-1 
      1H5v2h14V5z"/>
  </symbol>

  <symbol id="icon-edit" viewBox="0 0 24 24">
    <path d="M3 17.25V21h3.75L17.81 
      9.94l-3.75-3.75L3 
      17.25zm18-10.5a1.003 1.003 0 000-1.42l-2.34-2.34a1.003 
      1.003 0 00-1.42 0l-1.83 
      1.83 3.75 3.75L21 
      6.75z"/>
  </symbol>

  <symbol id="icon-copy" viewBox="0 0 24 24">
    <path d="M16 1H4a2 2 0 00-2 
      2v14h2V3h12V1zm3 4H8a2 
      2 0 00-2 2v14a2 2 0 002 
      2h11a2 2 0 002-2V7a2 
      2 0 00-2-2z"/>
  </symbol>

  <symbol id="icon-play" viewBox="0 0 24 24">
    <path d="M8 5v14l11-7z"/>
  </symbol>

  <!-- Status -->
  <symbol id="icon-public" viewBox="0 0 24 24">
    <path d="M12 2a10 10 0 100 
      20 10 10 0 000-20zm6.93 
      6h-2.95a15.3 15.3 0 00-1.38-3.56A8.04 
      8.04 0 0118.93 8z"/>
  </symbol>

  <symbol id="icon-archive" viewBox="0 0 24 24">
    <path d="M20.54 5.23l-1.39-1.39A2 
      2 0 0016.31 3H7.69a2 2 0 
      00-1.85.85L4.46 5.23A2 
      2 0 004 6.65V19a2 2 0 
      002 2h12a2 2 0 002-2V6.65a2 
      2 0 00-.46-1.42zM12 17l-4-4h3V9h2v4h3l-4 
      4z"/>
  </symbol>

  <symbol id="icon-volume-off" viewBox="0 0 24 24">
    <path d="M16.5 12l4.5 4.5-1.5 
      1.5L15 13.5l-4.5 4.5H7v-6H3v-4h4V6h3.5L15 
      10.5l4.5-4.5 1.5 1.5z"/>
  </symbol>

</svg>
