<?xml version="1.0" encoding="UTF-8"?>
<svg xmlns="http://www.w3.org/2000/svg" style="display:none">
  <symbol id="icon-bright-list" viewBox="0 -960 960 960">
    <path d="M280-600v-80h560v80H280Zm0 160v-80h560v80H280Zm0 160v-80h560v80H280ZM160-600q-17 0-28.5-11.5T120-640q0-17 11.5-28.5T160-680q17 0 28.5 11.5T200-640q0 17-11.5 28.5T160-600Zm0 160q-17 0-28.5-11.5T120-480q0-17 11.5-28.5T160-520q17 0 28.5 11.5T200-480q0 17-11.5 28.5T160-440Zm0 160q-17 0-28.5-11.5T120-320q0-17 11.5-28.5T160-360q17 0 28.5 11.5T200-320q0 17-11.5 28.5T160-280Z"/>
  </symbol>
  <symbol id="icon-bright-create-events" viewBox="0 -960 960 960">
    <path d="M680-80v-120H560v-80h120v-120h80v120h120v80H760v120h-80Zm-480-80q-33 0-56.5-23.5T120-240v-480q0-33 23.5-56.5T200-800h40v-80h80v80h240v-80h80v80h40q33 0 56.5 23.5T760-720v244q-20-3-40-3t-40 3v-84H200v320h280q0 20 3 40t11 40H200Zm0-480h480v-80H200v80Zm0 0v-80 80Z"/>
  </symbol>
  <symbol id="icon-bright-antenna" viewBox="0 -960 960 960">
    <path d="M40-480q0-92 34.5-172T169-791.5q60-59.5 140-94T480-920q91 0 171 34.5t140 94Q851-732 885.5-652T920-480h-80q0-75-28.5-140.5T734-735q-49-49-114.5-77T480-840q-74 0-139.5 28T226-735q-49 49-77.5 114.5T120-480H40Zm160 0q0-118 82-199t198-81q116 0 198 81t82 199h-80q0-83-58.5-141.5T480-680q-83 0-141.5 58.5T280-480h-80ZM360-64l-56-56 136-136v-132q-27-12-43.5-37T380-480q0-42 29-71t71-29q42 0 71 29t29 71q0 30-16.5 55T520-388v132l136 136-56 56-120-120L360-64Z"/>
  </symbol>
  <symbol id="icon-bright-menu" viewBox="0 -960 960 960">
    <path d="M120-240v-80h720v80H120Zm0-200v-80h720v80H120Zm0-200v-80h720v80H120Z"/>
  </symbol>
  <symbol id="icon-bright-deleted" viewBox="0 -960 960 960">
    <path d="M280-120q-33 0-56.5-23.5T200-200v-520h-40v-80h200v-40h240v40h200v80h-40v520q0 33-23.5 56.5T680-120H280Zm400-600H280v520h400v-520ZM360-280h80v-360h-80v360Zm160 0h80v-360h-80v360ZM280-720v520-520Z"/>
  </symbol>
  <symbol id="icon-bright-notify" viewBox="0 -960 960 960">
    <path d="M160-200v-80h80v-280q0-83 50-147.5T420-792v-28q0-25 17.5-42.5T480-880q25 0 42.5 17.5T540-820v28q80 20 130 84.5T720-560v280h80v80H160Zm320-300Zm0 420q-33 0-56.5-23.5T400-160h160q0 33-23.5 56.5T480-80ZM320-280h320v-280q0-66-47-113t-113-47q-66 0-113 47t-47 113v280Z"/>
  </symbol>
  <symbol id="icon-bright-arrow_down" viewBox="0 -960 960 960">
    <path d="M480-344 240-584l56-56 184 184 184-184 56 56-240 240Z"/>
  </symbol>
  <symbol id="icon-bright-schedule" viewBox="0 -960 960 960">
    <path d="m612-292 56-56-148-148v-184h-80v216l172 172ZM480-80q-83 0-156-31.5T197-197q-54-54-85.5-127T80-480q0-83 31.5-156T197-763q54-54 127-85.5T480-880q83 0 156 31.5T763-763q54 54 85.5 127T880-480q0 83-31.5 156T763-197q-54 54-127 85.5T480-80Zm0-400Zm0 320q133 0 226.5-93.5T800-480q0-133-93.5-226.5T480-800q-133 0-226.5 93.5T160-480q0 133 93.5 226.5T480-160Z"/>
  </symbol>
  <symbol id="icon-bright-add-circle" viewBox="0 -960 960 960">
    <path d="M440-280h80v-160h160v-80H520v-160h-80v160H280v80h160v160Zm40 200q-83 0-156-31.5T197-197q-54-54-85.5-127T80-480q0-83 31.5-156T197-763q54-54 127-85.5T480-880q83 0 156 31.5T763-763q54 54 85.5 127T880-480q0 83-31.5 156T763-197q-54 54-127 85.5T480-80Zm0-80q134 0 227-93t93-227q0-134-93-227t-227-93q-134 0-227 93t-93 227q0 134 93 227t227 93Zm0-320Z"/>
  </symbol>
  <symbol id="icon-bright-group" viewBox="0 -960 960 960">
    <path d="M40-160v-112q0-34 17.5-62.5T104-378q62-31 126-46.5T360-440q66 0 130 15.5T616-378q29 15 46.5 43.5T680-272v112H40Zm720 0v-120q0-44-24.5-84.5T666-434q51 6 96 20.5t84 35.5q36 20 55 44.5t19 53.5v120H760ZM360-480q-66 0-113-47t-47-113q0-66 47-113t113-47q66 0 113 47t47 113q0 66-47 113t-113 47Zm400-160q0 66-47 113t-113 47q-11 0-28-2.5t-28-5.5q27-32 41.5-71t14.5-81q0-42-14.5-81T544-792q14-5 28-6.5t28-1.5q66 0 113 47t47 113ZM120-240h480v-32q0-11-5.5-20T580-306q-54-27-109-40.5T360-360q-56 0-111 13.5T140-306q-9 5-14.5 14t-5.5 20v32Zm240-320q33 0 56.5-23.5T440-640q0-33-23.5-56.5T360-720q-33 0-56.5 23.5T280-640q0 33 23.5 56.5T360-560Zm0 320Zm0-400Z"/>
  </symbol>
  <symbol id="icon-bright-more" viewBox="0 -960 960 960">
    <path d="M480-160q-33 0-56.5-23.5T400-240q0-33 23.5-56.5T480-320q33 0 56.5 23.5T560-240q0 33-23.5 56.5T480-160Zm0-240q-33 0-56.5-23.5T400-480q0-33 23.5-56.5T480-560q33 0 56.5 23.5T560-480q0 33-23.5 56.5T480-400Zm0-240q-33 0-56.5-23.5T400-720q0-33 23.5-56.5T480-800q33 0 56.5 23.5T560-720q0 33-23.5 56.5T480-640Z"/>
  </symbol>
  <symbol id="icon-bright-logout" viewBox="0 -960 960 960">
    <path d="M200-120q-33 0-56.5-23.5T120-200v-560q0-33 23.5-56.5T200-840h280v80H200v560h280v80H200Zm440-160-55-58 102-102H360v-80h327L585-622l55-58 200 200-200 200Z"/>
  </symbol>
  <symbol id="icon-bright-arrow-up" viewBox="0 96 960 960">
    <path d="m296 711-56-56 240-240 240 240-56 56-184-184-184 184Z"/>
  </symbol>
  <symbol id="icon-bright-public" viewBox="0 -960 960 960">
    <path d="M480-80q-83 0-156-31.5T197-197q-54-54-85.5-127T80-480q0-83 31.5-156T197-763q54-54 127-85.5T480-880q83 0 156 31.5T763-763q54 54 85.5 127T880-480q0 83-31.5 156T763-197q-54 54-127 85.5T480-80Zm-40-82v-78q-33 0-56.5-23.5T360-320v-40L168-552q-3 18-5.5 36t-2.5 36q0 121 79.5 212T440-162Zm276-102q20-22 36-47.5t26.5-53q10.5-27.5 16-56.5t5.5-59q0-98-54.5-179T600-776v16q0 33-23.5 56.5T520-680h-80v80q0 17-11.5 28.5T400-560h-80v80h240q17 0 28.5 11.5T600-440v120h40q26 0 47 15.5t29 40.5Z"/>
  </symbol>
  <symbol id="icon-bright-radio" viewBox="0 -960 960 960">
    <path d="M160-80q-33 0-56.5-23.5T80-160v-480q0-25 13.5-45t36.5-29l506-206 26 66-330 134h468q33 0 56.5 23.5T880-640v480q0 33-23.5 56.5T800-80H160Zm0-80h640v-280H160v280Zm160-40q42 0 71-29t29-71q0-42-29-71t-71-29q-42 0-71 29t-29 71q0 42 29 71t71 29ZM160-520h480v-80h80v80h80v-120H160v120Zm0 360v-280 280Z"/>
  </symbol>
  <symbol id="icon-bright-play-circle" viewBox="0 -960 960 960">
    <path d="m380-300 280-180-280-180v360ZM480-80q-83 0-156-31.5T197-197q-54-54-85.5-127T80-480q0-83 31.5-156T197-763q54-54 127-85.5T480-880q83 0 156 31.5T763-763q54 54 85.5 127T880-480q0 83-31.5 156T763-197q-54 54-127 85.5T480-80Zm0-80q134 0 227-93t93-227q0-134-93-227t-227-93q-134 0-227 93t-93 227q0 134 93 227t227 93Zm0-320Z"/>
  </symbol>
  <symbol id="icon-bright-arrow-down" viewBox="0 96 960 960">
    <path d="M480 711 240 471l56-56 184 184 184-184 56 56-240 240Z"/>
  </symbol>
  <symbol id="icon-bright-image" viewBox="0 -960 960 960">
    <path d="M200-120q-33 0-56.5-23.5T120-200v-560q0-33 23.5-56.5T200-840h560q33 0 56.5 23.5T840-760v560q0 33-23.5 56.5T760-120H200Zm0-80h560v-560H200v560Zm40-80h480L570-480 450-320l-90-120-120 160Zm-40 80v-560 560Z"/>
  </symbol>
  <symbol id="icon-bright-toggle_off" viewBox="0 -960 960 960">
    <path d="M280-240q-100 0-170-70T40-480q0-100 70-170t170-70h400q100 0 170 70t70 170q0 100-70 170t-170 70H280Zm0-80h400q66 0 113-47t47-113q0-66-47-113t-113-47H280q-66 0-113 47t-47 113q0 66 47 113t113 47Zm0-40q50 0 85-35t35-85q0-50-35-85t-85-35q-50 0-85 35t-35 85q0 50 35 85t85 35Zm200-120Z"/>
  </symbol>
  <symbol id="icon-bright-rule" viewBox="0 -960 960 960">
    <path d="m576-160-56-56 104-104-104-104 56-56 104 104 104-104 56 56-104 104 104 104-56 56-104-104-104 104Zm79-360L513-662l56-56 85 85 170-170 56 57-225 226ZM80-280v-80h360v80H80Zm0-320v-80h360v80H80Z"/>
  </symbol>
  <symbol id="icon-bright-download_for_offline" viewBox="0 -960 960 960">
    <path d="M280-280h400v-80H280v80Zm200-120 160-160-56-56-64 62v-166h-80v166l-64-62-56 56 160 160Zm0 320q-83 0-156-31.5T197-197q-54-54-85.5-127T80-480q0-83 31.5-156T197-763q54-54 127-85.5T480-880q83 0 156 31.5T763-763q54 54 85.5 127T880-480q0 83-31.5 156T763-197q-54 54-127 85.5T480-80Zm0-80q134 0 227-93t93-227q0-134-93-227t-227-93q-134 0-227 93t-93 227q0 134 93 227t227 93Zm0-320Z"/>
  </symbol>
  <symbol id="icon-bright-cancel" viewBox="0 -960 960 960">
    <path d="m336-280 144-144 144 144 56-56-144-144 144-144-56-56-144 144-144-144-56 56 144 144-144 144 56 56ZM480-80q-83 0-156-31.5T197-197q-54-54-85.5-127T80-480q0-83 31.5-156T197-763q54-54 127-85.5T480-880q83 0 156 31.5T763-763q54 54 85.5 127T880-480q0 83-31.5 156T763-197q-54 54-127 85.5T480-80Zm0-80q134 0 227-93t93-227q0-134-93-227t-227-93q-134 0-227 93t-93 227q0 134 93 227t227 93Zm0-320Z"/>
  </symbol>
  <symbol id="icon-bright-calendar" viewBox="0 -960 960 960">
    <path d="M200-80q-33 0-56.5-23.5T120-160v-560q0-33 23.5-56.5T200-800h40v-80h80v80h320v-80h80v80h40q33 0 56.5 23.5T840-720v560q0 33-23.5 56.5T760-80H200Zm0-80h560v-400H200v400Zm0-480h560v-80H200v80Zm0 0v-80 80Zm280 240q-17 0-28.5-11.5T440-440q0-17 11.5-28.5T480-480q17 0 28.5 11.5T520-440q0 17-11.5 28.5T480-400Zm-160 0q-17 0-28.5-11.5T280-440q0-17 11.5-28.5T320-480q17 0 28.5 11.5T360-440q0 17-11.5 28.5T320-400Zm320 0q-17 0-28.5-11.5T600-440q0-17 11.5-28.5T640-480q17 0 28.5 11.5T680-440q0 17-11.5 28.5T640-400ZM480-240q-17 0-28.5-11.5T440-280q0-17 11.5-28.5T480-320q17 0 28.5 11.5T520-280q0 17-11.5 28.5T480-240Zm-160 0q-17 0-28.5-11.5T280-280q0-17 11.5-28.5T320-320q17 0 28.5 11.5T360-280q0 17-11.5 28.5T320-240Zm320 0q-17 0-28.5-11.5T600-280q0-17 11.5-28.5T640-320q17 0 28.5 11.5T680-280q0 17-11.5 28.5T640-240Z"/>
  </symbol>
  <symbol id="icon-bright-arrow-back" viewBox="0 -960 960 960">
    <path d="m313-440 224 224-57 56-320-320 320-320 57 56-224 224h487v80H313Z"/>
  </symbol>
  <symbol id="icon-bright-home" viewBox="0 -960 960 960">
    <path d="M240-200h120v-240h240v240h120v-360L480-740 240-560v360Zm-80 80v-480l320-240 320 240v480H520v-240h-80v240H160Zm320-350Z"/>
  </symbol>
  <symbol id="icon-bright-settings" viewBox="0 -960 960 960">
    <path d="m370-80-16-128q-13-5-24.5-12T307-235l-119 50L78-375l103-78q-1-7-1-13.5v-27q0-6.5 1-13.5L78-585l110-190 119 50q11-8 23-15t24-12l16-128h220l16 128q13 5 24.5 12t22.5 15l119-50 110 190-103 78q1 7 1 13.5v27q0 6.5-2 13.5l103 78-110 190-118-50q-11 8-23 15t-24 12L590-80H370Zm70-80h79l14-106q31-8 57.5-23.5T639-327l99 41 39-68-86-65q5-14 7-29.5t2-31.5q0-16-2-31.5t-7-29.5l86-65-39-68-99 42q-22-23-48.5-38.5T533-694l-13-106h-79l-14 106q-31 8-57.5 23.5T321-633l-99-41-39 68 86 64q-5 15-7 30t-2 32q0 16 2 31t7 30l-86 65 39 68 99-42q22 23 48.5 38.5T427-266l13 106Zm42-180q58 0 99-41t41-99q0-58-41-99t-99-41q-59 0-99.5 41T342-480q0 58 40.5 99t99.5 41Zm-2-140Z"/>
  </symbol>
  <symbol id="icon-bright-arrow_up" viewBox="0 -960 960 960">
    <path d="M480-528 296-344l-56-56 240-240 240 240-56 56-184-184Z"/>
  </symbol>
  <symbol id="icon-bright-preview" viewBox="0 -960 960 960">
    <path d="M200-120q-33 0-56.5-23.5T120-200v-560q0-33 23.5-56.5T200-840h560q33 0 56.5 23.5T840-760v560q0 33-23.5 56.5T760-120H200Zm0-80h560v-480H200v480Zm280-80q-82 0-146.5-44.5T240-440q29-71 93.5-115.5T480-600q82 0 146.5 44.5T720-440q-29 71-93.5 115.5T480-280Zm0-60q56 0 102-26.5t72-73.5q-26-47-72-73.5T480-540q-56 0-102 26.5T306-440q26 47 72 73.5T480-340Zm0-100Zm0 60q25 0 42.5-17.5T540-440q0-25-17.5-42.5T480-500q-25 0-42.5 17.5T420-440q0 25 17.5 42.5T480-380Z"/>
  </symbol>
  <symbol id="icon-bright-activity" viewBox="0 -960 960 960">
    <path d="M720 0 600-120v-60L316-464q-9 2-18 3t-18 1v-88q50 2 102-21.5t84-58.5l56-62q13-15 30.5-22.5T590-720q38 0 64 26t26 64v230q0 26-9.5 47.5T644-314L500-456v-92q-20 17-43 31t-49 25l252 252h60l120 120L720 0ZM220-140l-60-60 180-180 100 100h-80L220-140Zm380-620q-33 0-56.5-23.5T520-840q0-33 23.5-56.5T600-920q33 0 56.5 23.5T680-840q0 33-23.5 56.5T600-760Z"/>
  </symbol>
  <symbol id="icon-bright-back" viewBox="0 -960 960 960">
    <path d="m313-440 224 224-57 56-320-320 320-320 57 56-224 224h487v80H313Z"/>
  </symbol>
  <symbol id="icon-bright-toggle_on" viewBox="0 -960 960 960">
    <path d="M280-240q-100 0-170-70T40-480q0-100 70-170t170-70h400q100 0 170 70t70 170q0 100-70 170t-170 70H280Zm0-80h400q66 0 113-47t47-113q0-66-47-113t-113-47H280q-66 0-113 47t-47 113q0 66 47 113t113 47Zm400-40q50 0 85-35t35-85q0-50-35-85t-85-35q-50 0-85 35t-35 85q0 50 35 85t85 35ZM480-480Z"/>
  </symbol>
  <symbol id="icon-bright-help" viewBox="0 -960 960 960">
    <path d="M478-240q21 0 35.5-14.5T528-290q0-21-14.5-35.5T478-340q-21 0-35.5 14.5T428-290q0 21 14.5 35.5T478-240Zm-36-154h74q0-33 7.5-52t42.5-52q26-26 41-49.5t15-56.5q0-56-41-86t-97-30q-57 0-92.5 30T342-618l66 26q5-18 22.5-39t53.5-21q32 0 48 17.5t16 38.5q0 20-12 37.5T506-526q-44 39-54 59t-10 73Zm38 314q-83 0-156-31.5T197-197q-54-54-85.5-127T80-480q0-83 31.5-156T197-763q54-54 127-85.5T480-880q83 0 156 31.5T763-763q54 54 85.5 127T880-480q0 83-31.5 156T763-197q-54 54-127 85.5T480-80Zm0-80q134 0 227-93t93-227q0-134-93-227t-227-93q-134 0-227 93t-93 227q0 134 93 227t227 93Zm0-320Z"/>
  </symbol>
  <symbol id="icon-bright-filter_list" viewBox="0 -960 960 960">
    <path d="M400-240v-80h160v80H400ZM240-440v-80h480v80H240ZM120-640v-80h720v80H120Z"/>
  </symbol>
  <symbol id="icon-bright-add" viewBox="0 -960 960 960">
    <path d="M440-440H200v-80h240v-240h80v240h240v80H520v240h-80v-240Z"/>
  </symbol>
  <symbol id="icon-bright-accounts" viewBox="0 -960 960 960">
    <path d="M600-120h240v-33q-25-23-56-35t-64-12q-33 0-64 12t-56 35v33Zm120-120q25 0 42.5-17.5T780-300q0-25-17.5-42.5T720-360q-25 0-42.5 17.5T660-300q0 25 17.5 42.5T720-240ZM480-480Zm2-140q-58 0-99 41t-41 99q0 48 27 84t71 50q0-23 .5-44t8.5-38q-14-8-20.5-22t-6.5-30q0-25 17.5-42.5T482-540q15 0 28.5 7.5T533-512q11-5 23-7t24-2h36q-13-43-49.5-71T482-620ZM370-80l-16-128q-13-5-24.5-12T307-235l-119 50L78-375l103-78q-1-7-1-13.5v-27q0-6.5 1-13.5L78-585l110-190 119 50q11-8 23-15t24-12l16-128h220l16 128q13 5 24.5 12t22.5 15l119-50 110 190-85 65H696q-1-5-2-10.5t-3-10.5l86-65-39-68-99 42q-22-23-48.5-38.5T533-694l-13-106h-79l-14 106q-31 8-57.5 23.5T321-633l-99-41-39 68 86 64q-5 15-7 30t-2 32q0 16 2 31t7 30l-86 65 39 68 99-42q24 25 54 42t65 22v184h-70Zm210 40q-25 0-42.5-17.5T520-100v-280q0-25 17.5-42.5T580-440h280q25 0 42.5 17.5T920-380v280q0 25-17.5 42.5T860-40H580Z"/>
  </symbol>
  <symbol id="icon-bright-public_off" viewBox="0 -960 960 960">
    <path d="M819-28 701-146q-48 32-103.5 49T480-80q-83 0-156-31.5T197-197q-54-54-85.5-127T80-480q0-62 17-117.5T146-701L27-820l57-57L876-85l-57 57ZM440-162v-78q-33 0-56.5-23.5T360-320v-40L168-552q-3 18-5.5 36t-2.5 36q0 121 79.5 212T440-162Zm374-99-58-58q21-37 32.5-77.5T800-480q0-98-54.5-179T600-776v16q0 33-23.5 56.5T520-680h-80v45L261-814q48-31 103-48.5T480-880q83 0 156 31.5T763-763q54 54 85.5 127T880-480q0 61-17.5 116T814-261Z"/>
  </symbol>
  <symbol id="icon-dark-play" viewBox="0 0 24 24">
    <path d="M0 0h24v24H0V0z" fill="none"/>
    <path d="M10 8.64L15.27 12 10 15.36V8.64M8 5v14l11-7L8 5z"/>
  </symbol>
  <symbol id="icon-dark-list" viewBox="0 -960 960 960">
    <path d="M280-600v-80h560v80H280Zm0 160v-80h560v80H280Zm0 160v-80h560v80H280ZM160-600q-17 0-28.5-11.5T120-640q0-17 11.5-28.5T160-680q17 0 28.5 11.5T200-640q0 17-11.5 28.5T160-600Zm0 160q-17 0-28.5-11.5T120-480q0-17 11.5-28.5T160-520q17 0 28.5 11.5T200-480q0 17-11.5 28.5T160-440Zm0 160q-17 0-28.5-11.5T120-320q0-17 11.5-28.5T160-360q17 0 28.5 11.5T200-320q0 17-11.5 28.5T160-280Z"/>
  </symbol>
  <symbol id="icon-dark-create-events" viewBox="0 -960 960 960">
    <path d="M680-80v-120H560v-80h120v-120h80v120h120v80H760v120h-80Zm-480-80q-33 0-56.5-23.5T120-240v-480q0-33 23.5-56.5T200-800h40v-80h80v80h240v-80h80v80h40q33 0 56.5 23.5T760-720v244q-20-3-40-3t-40 3v-84H200v320h280q0 20 3 40t11 40H200Zm0-480h480v-80H200v80Zm0 0v-80 80Z"/>
  </symbol>
  <symbol id="icon-dark-antenna" viewBox="0 -960 960 960">
    <path d="M40-480q0-92 34.5-172T169-791.5q60-59.5 140-94T480-920q91 0 171 34.5t140 94Q851-732 885.5-652T920-480h-80q0-75-28.5-140.5T734-735q-49-49-114.5-77T480-840q-74 0-139.5 28T226-735q-49 49-77.5 114.5T120-480H40Zm160 0q0-118 82-199t198-81q116 0 198 81t82 199h-80q0-83-58.5-141.5T480-680q-83 0-141.5 58.5T280-480h-80ZM360-64l-56-56 136-136v-132q-27-12-43.5-37T380-480q0-42 29-71t71-29q42 0 71 29t29 71q0 30-16.5 55T520-388v132l136 136-56 56-120-120L360-64Z"/>
  </symbol>
  <symbol id="icon-dark-prepared" viewBox="0 0 24 24">
    <path d="M0 0h24v24H0V0z" fill="none"/>
    <path d="M12 2C6.48 2 2 6.48 2 12s4.48 10 10 10 10-4.48 10-10S17.52 2 12 2zm0 18c-4.41 0-8-3.59-8-8s3.59-8 8-8 8 3.59 8 8-3.59 8-8 8zm4.59-12.42L10 14.17l-2.59-2.58L6 13l4 4 8-8z"/>
  </symbol>
  <symbol id="icon-dark-menu" viewBox="0 -960 960 960">
    <path d="M120-240v-80h720v80H120Zm0-200v-80h720v80H120Zm0-200v-80h720v80H120Z"/>
  </symbol>
  <symbol id="icon-dark-deleted" viewBox="0 -960 960 960">
    <path d="M280-120q-33 0-56.5-23.5T200-200v-520h-40v-80h200v-40h240v40h200v80h-40v520q0 33-23.5 56.5T680-120H280Zm400-600H280v520h400v-520ZM360-280h80v-360h-80v360Zm160 0h80v-360h-80v360ZM280-720v520-520Z"/>
  </symbol>
  <symbol id="icon-dark-notify" viewBox="0 -960 960 960">
    <path d="M160-200v-80h80v-280q0-83 50-147.5T420-792v-28q0-25 17.5-42.5T480-880q25 0 42.5 17.5T540-820v28q80 20 130 84.5T720-560v280h80v80H160Zm320-300Zm0 420q-33 0-56.5-23.5T400-160h160q0 33-23.5 56.5T480-80ZM320-280h320v-280q0-66-47-113t-113-47q-66 0-113 47t-47 113v280Z"/>
  </symbol>
  <symbol id="icon-dark-arrow_down" viewBox="0 -960 960 960">
    <path d="M480-344 240-584l56-56 184 184 184-184 56 56-240 240Z"/>
  </symbol>
  <symbol id="icon-dark-schedule" viewBox="0 -960 960 960">
    <path d="m612-292 56-56-148-148v-184h-80v216l172 172ZM480-80q-83 0-156-31.5T197-197q-54-54-85.5-127T80-480q0-83 31.5-156T197-763q54-54 127-85.5T480-880q83 0 156 31.5T763-763q54 54 85.5 127T880-480q0 83-31.5 156T763-197q-54 54-127 85.5T480-80Zm0-400Zm0 320q133 0 226.5-93.5T800-480q0-133-93.5-226.5T480-800q-133 0-226.5 93.5T160-480q0 133 93.5 226.5T480-160Z"/>
  </symbol>
  <symbol id="icon-dark-archive" viewBox="0 0 24 24">
    <path d="M0 0h24v24H0V0z" fill="none"/>
    <path d="M20.54 5.23l-1.39-1.68C18.88 3.21 18.47 3 18 3H6c-.47 0-.88.21-1.16.55L3.46 5.23C3.17 5.57 3 6.02 3 6.5V19c0 1.1.9 2 2 2h14c1.1 0 2-.9 2-2V6.5c0-.48-.17-.93-.46-1.27zM6.24 5h11.52l.81.97H5.44l.8-.97zM5 19V8h14v11H5zm8.45-9h-2.9v3H8l4 4 4-4h-2.55z"/>
  </symbol>
  <symbol id="icon-dark-add-circle" viewBox="0 -960 960 960">
    <path d="M440-280h80v-160h160v-80H520v-160h-80v160H280v80h160v160Zm40 200q-83 0-156-31.5T197-197q-54-54-85.5-127T80-480q0-83 31.5-156T197-763q54-54 127-85.5T480-880q83 0 156 31.5T763-763q54 54 85.5 127T880-480q0 83-31.5 156T763-197q-54 54-127 85.5T480-80Zm0-80q134 0 227-93t93-227q0-134-93-227t-227-93q-134 0-227 93t-93 227q0 134 93 227t227 93Zm0-320Z"/>
  </symbol>
  <symbol id="icon-dark-group" viewBox="0 -960 960 960">
    <path d="M40-160v-112q0-34 17.5-62.5T104-378q62-31 126-46.5T360-440q66 0 130 15.5T616-378q29 15 46.5 43.5T680-272v112H40Zm720 0v-120q0-44-24.5-84.5T666-434q51 6 96 20.5t84 35.5q36 20 55 44.5t19 53.5v120H760ZM360-480q-66 0-113-47t-47-113q0-66 47-113t113-47q66 0 113 47t47 113q0 66-47 113t-113 47Zm400-160q0 66-47 113t-113 47q-11 0-28-2.5t-28-5.5q27-32 41.5-71t14.5-81q0-42-14.5-81T544-792q14-5 28-6.5t28-1.5q66 0 113 47t47 113ZM120-240h480v-32q0-11-5.5-20T580-306q-54-27-109-40.5T360-360q-56 0-111 13.5T140-306q-9 5-14.5 14t-5.5 20v32Zm240-320q33 0 56.5-23.5T440-640q0-33-23.5-56.5T360-720q-33 0-56.5 23.5T280-640q0 33 23.5 56.5T360-560Zm0 320Zm0-400Z"/>
  </symbol>
  <symbol id="icon-dark-more" viewBox="0 -960 960 960">
    <path d="M480-160q-33 0-56.5-23.5T400-240q0-33 23.5-56.5T480-320q33 0 56.5 23.5T560-240q0 33-23.5 56.5T480-160Zm0-240q-33 0-56.5-23.5T400-480q0-33 23.5-56.5T480-560q33 0 56.5 23.5T560-480q0 33-23.5 56.5T480-400Zm0-240q-33 0-56.5-23.5T400-720q0-33 23.5-56.5T480-800q33 0 56.5 23.5T560-720q0 33-23.5 56.5T480-640Z"/>
  </symbol>
  <symbol id="icon-dark-replay" viewBox="0 0 24 24">
    <g>
      <rect fill="none" height="24" width="24"/>
      <rect fill="none" height="24" width="24"/>
      <rect fill="none" height="24" width="24"/>
    </g>
    <g>
      <g/>
      <path d="M12,5V1L7,6l5,5V7c3.31,0,6,2.69,6,6s-2.69,6-6,6s-6-2.69-6-6H4c0,4.42,3.58,8,8,8s8-3.58,8-8S16.42,5,12,5z"/>
    </g>
  </symbol>
  <symbol id="icon-dark-logout" viewBox="0 -960 960 960">
    <path d="M200-120q-33 0-56.5-23.5T120-200v-560q0-33 23.5-56.5T200-840h280v80H200v560h280v80H200Zm440-160-55-58 102-102H360v-80h327L585-622l55-58 200 200-200 200Z"/>
  </symbol>
  <symbol id="icon-dark-public" viewBox="0 -960 960 960">
    <path d="M480-80q-83 0-156-31.5T197-197q-54-54-85.5-127T80-480q0-83 31.5-156T197-763q54-54 127-85.5T480-880q83 0 156 31.5T763-763q54 54 85.5 127T880-480q0 83-31.5 156T763-197q-54 54-127 85.5T480-80Zm-40-82v-78q-33 0-56.5-23.5T360-320v-40L168-552q-3 18-5.5 36t-2.5 36q0 121 79.5 212T440-162Zm276-102q20-22 36-47.5t26.5-53q10.5-27.5 16-56.5t5.5-59q0-98-54.5-179T600-776v16q0 33-23.5 56.5T520-680h-80v80q0 17-11.5 28.5T400-560h-80v80h240q17 0 28.5 11.5T600-440v120h40q26 0 47 15.5t29 40.5Z"/>
  </symbol>
  <symbol id="icon-dark-download" viewBox="0 -960 960 960">
    <path d="M480-320 280-520l56-58 104 104v-326h80v326l104-104 56 58-200 200ZM240-160q-33 0-56.5-23.5T160-240v-120h80v120h480v-120h80v120q0 33-23.5 56.5T720-160H240Z"/>
  </symbol>
  <symbol id="icon-dark-radio" viewBox="0 -960 960 960">
    <path d="M160-80q-33 0-56.5-23.5T80-160v-480q0-25 13.5-45t36.5-29l506-206 26 66-330 134h468q33 0 56.5 23.5T880-640v480q0 33-23.5 56.5T800-80H160Zm0-80h640v-280H160v280Zm160-40q42 0 71-29t29-71q0-42-29-71t-71-29q-42 0-71 29t-29 71q0 42 29 71t71 29ZM160-520h480v-80h80v80h80v-120H160v120Zm0 360v-280 280Z"/>
  </symbol>
  <symbol id="icon-dark-play-circle" viewBox="0 -960 960 960">
    <path d="m380-300 280-180-280-180v360ZM480-80q-83 0-156-31.5T197-197q-54-54-85.5-127T80-480q0-83 31.5-156T197-763q54-54 127-85.5T480-880q83 0 156 31.5T763-763q54 54 85.5 127T880-480q0 83-31.5 156T763-197q-54 54-127 85.5T480-80Zm0-80q134 0 227-93t93-227q0-134-93-227t-227-93q-134 0-227 93t-93 227q0 134 93 227t227 93Zm0-320Z"/>
  </symbol>
  <symbol id="icon-dark-image" viewBox="0 -960 960 960">
    <path d="M200-120q-33 0-56.5-23.5T120-200v-560q0-33 23.5-56.5T200-840h560q33 0 56.5 23.5T840-760v560q0 33-23.5 56.5T760-120H200Zm0-80h560v-560H200v560Zm40-80h480L570-480 450-320l-90-120-120 160Zm-40 80v-560 560Z"/>
  </symbol>
  <symbol id="icon-dark-toggle_off" viewBox="0 -960 960 960">
    <path d="M280-240q-100 0-170-70T40-480q0-100 70-170t170-70h400q100 0 170 70t70 170q0 100-70 170t-170 70H280Zm0-80h400q66 0 113-47t47-113q0-66-47-113t-113-47H280q-66 0-113 47t-47 113q0 66 47 113t113 47Zm0-40q50 0 85-35t35-85q0-50-35-85t-85-35q-50 0-85 35t-35 85q0 50 35 85t85 35Zm200-120Z"/>
  </symbol>
  <symbol id="icon-dark-rule" viewBox="0 -960 960 960">
    <path d="m576-160-56-56 104-104-104-104 56-56 104 104 104-104 56 56-104 104 104 104-56 56-104-104-104 104Zm79-360L513-662l56-56 85 85 170-170 56 57-225 226ZM80-280v-80h360v80H80Zm0-320v-80h360v80H80Z"/>
  </symbol>
  <symbol id="icon-dark-download_for_offline" viewBox="0 -960 960 960">
    <path d="M280-280h400v-80H280v80Zm200-120 160-160-56-56-64 62v-166h-80v166l-64-62-56 56 160 160Zm0 320q-83 0-156-31.5T197-197q-54-54-85.5-127T80-480q0-83 31.5-156T197-763q54-54 127-85.5T480-880q83 0 156 31.5T763-763q54 54 85.5 127T880-480q0 83-31.5 156T763-197q-54 54-127 85.5T480-80Zm0-80q134 0 227-93t93-227q0-134-93-227t-227-93q-134 0-227 93t-93 227q0 134 93 227t227 93Zm0-320Z"/>
  </symbol>
  <symbol id="icon-dark-cancel" viewBox="0 -960 960 960">
    <path d="m336-280 144-144 144 144 56-56-144-144 144-144-56-56-144 144-144-144-56 56 144 144-144 144 56 56ZM480-80q-83 0-156-31.5T197-197q-54-54-85.5-127T80-480q0-83 31.5-156T197-763q54-54 127-85.5T480-880q83 0 156 31.5T763-763q54 54 85.5 127T880-480q0 83-31.5 156T763-197q-54 54-127 85.5T480-80Zm0-80q134 0 227-93t93-227q0-134-93-227t-227-93q-134 0-227 93t-93 227q0 134 93 227t227 93Zm0-320Z"/>
  </symbol>
  <symbol id="icon-dark-alert" viewBox="0 0 24 24">
    <path d="M1 21h22L12 2 1 21zm12-3h-2v-2h2v2zm0-4h-2v-4h2v4z"/>
  </symbol>
  <symbol id="icon-dark-error" viewBox="0 0 24 24">
    <path d="M12 2C6.48 2 2 6.48 2 12s4.48 10 10 10 10-4.48 10-10S17.52 2 12 2zm1 15h-2v-2h2v2zm0-4h-2V7h2v6z"/>
  </symbol>
  <symbol id="icon-dark-calendar" viewBox="0 -960 960 960">
    <path d="M200-80q-33 0-56.5-23.5T120-160v-560q0-33 23.5-56.5T200-800h40v-80h80v80h320v-80h80v80h40q33 0 56.5 23.5T840-720v560q0 33-23.5 56.5T760-80H200Zm0-80h560v-400H200v400Zm0-480h560v-80H200v80Zm0 0v-80 80Zm280 240q-17 0-28.5-11.5T440-440q0-17 11.5-28.5T480-480q17 0 28.5 11.5T520-440q0 17-11.5 28.5T480-400Zm-160 0q-17 0-28.5-11.5T280-440q0-17 11.5-28.5T320-480q17 0 28.5 11.5T360-440q0 17-11.5 28.5T320-400Zm320 0q-17 0-28.5-11.5T600-440q0-17 11.5-28.5T640-480q17 0 28.5 11.5T680-440q0 17-11.5 28.5T640-400ZM480-240q-17 0-28.5-11.5T440-280q0-17 11.5-28.5T480-320q17 0 28.5 11.5T520-280q0 17-11.5 28.5T480-240Zm-160 0q-17 0-28.5-11.5T280-280q0-17 11.5-28.5T320-320q17 0 28.5 11.5T360-280q0 17-11.5 28.5T320-240Zm320 0q-17 0-28.5-11.5T600-280q0-17 11.5-28.5T640-320q17 0 28.5 11.5T680-280q0 17-11.5 28.5T640-240Z"/>
  </symbol>
  <symbol id="icon-dark-arrow-back" viewBox="0 -960 960 960">
    <path d="m313-440 224 224-57 56-320-320 320-320 57 56-224 224h487v80H313Z"/>
  </symbol>
  <symbol id="icon-dark-navigate_next" viewBox="0 0 24 24">
    <path d="M0 0h24v24H0V0z" fill="none"/>
    <path d="M10.02 6L8.61 7.41 13.19 12l-4.58 4.59L10.02 18l6-6-6-6z"/>
  </symbol>
  <symbol id="icon-dark-home" viewBox="0 -960 960 960">
    <path d="M240-200h120v-240h240v240h120v-360L480-740 240-560v360Zm-80 80v-480l320-240 320 240v480H520v-240h-80v240H160Zm320-350Z"/>
  </symbol>
  <symbol id="icon-dark-mic_off" viewBox="0 0 24 24">
    <path d="M0 0h24v24H0V0z" fill="none"/>
    <path d="M10.8 4.9c0-.66.54-1.2 1.2-1.2s1.2.54 1.2 1.2l-.01 3.91L15 10.6V5c0-1.66-1.34-3-3-3-1.54 0-2.79 1.16-2.96 2.65l1.76 1.76V4.9zM19 11h-1.7c0 .58-.1 1.13-.27 1.64l1.27 1.27c.44-.88.7-1.87.7-2.91zM4.41 2.86L3 4.27l6 6V11c0 1.66 1.34 3 3 3 .23 0 .44-.03.65-.08l1.66 1.66c-.71.33-1.5.52-2.31.52-2.76 0-5.3-2.1-5.3-5.1H5c0 3.41 2.72 6.23 6 6.72V21h2v-3.28c.91-.13 1.77-.45 2.55-.9l4.2 4.2 1.41-1.41L4.41 2.86z"/>
  </symbol>
  <symbol id="icon-dark-publish" viewBox="0 -960 960 960">
    <path d="M440-160v-326L336-382l-56-58 200-200 200 200-56 58-104-104v326h-80ZM160-600v-120q0-33 23.5-56.5T240-800h480q33 0 56.5 23.5T800-720v120h-80v-120H240v120h-80Z"/>
  </symbol>
  <symbol id="icon-dark-settings" viewBox="0 -960 960 960">
    <path d="m370-80-16-128q-13-5-24.5-12T307-235l-119 50L78-375l103-78q-1-7-1-13.5v-27q0-6.5 1-13.5L78-585l110-190 119 50q11-8 23-15t24-12l16-128h220l16 128q13 5 24.5 12t22.5 15l119-50 110 190-103 78q1 7 1 13.5v27q0 6.5-2 13.5l103 78-110 190-118-50q-11 8-23 15t-24 12L590-80H370Zm70-80h79l14-106q31-8 57.5-23.5T639-327l99 41 39-68-86-65q5-14 7-29.5t2-31.5q0-16-2-31.5t-7-29.5l86-65-39-68-99 42q-22-23-48.5-38.5T533-694l-13-106h-79l-14 106q-31 8-57.5 23.5T321-633l-99-41-39 68 86 64q-5 15-7 30t-2 32q0 16 2 31t7 30l-86 65 39 68 99-42q22 23 48.5 38.5T427-266l13 106Zm42-180q58 0 99-41t41-99q0-58-41-99t-99-41q-59 0-99.5 41T342-480q0 58 40.5 99t99.5 41Zm-2-140Z"/>
  </symbol>
  <symbol id="icon-dark-arrow_up" viewBox="0 -960 960 960">
    <path d="M480-528 296-344l-56-56 240-240 240 240-56 56-184-184Z"/>
  </symbol>
  <symbol id="icon-dark-preview" viewBox="0 -960 960 960">
    <path d="M200-120q-33 0-56.5-23.5T120-200v-560q0-33 23.5-56.5T200-840h560q33 0 56.5 23.5T840-760v560q0 33-23.5 56.5T760-120H200Zm0-80h560v-480H200v480Zm280-80q-82 0-146.5-44.5T240-440q29-71 93.5-115.5T480-600q82 0 146.5 44.5T720-440q-29 71-93.5 115.5T480-280Zm0-60q56 0 102-26.5t72-73.5q-26-47-72-73.5T480-540q-56 0-102 26.5T306-440q26 47 72 73.5T480-340Zm0-100Zm0 60q25 0 42.5-17.5T540-440q0-25-17.5-42.5T480-500q-25 0-42.5 17.5T420-440q0 25 17.5 42.5T480-380Z"/>
  </symbol>
  <symbol id="icon-dark-mic" viewBox="0 0 24 24">
    <g>
      <rect fill="none" height="24" width="24"/>
      <rect fill="none" height="24" width="24"/>
      <rect fill="none" height="24" width="24"/>
    </g>
    <g>
      <g/>
      <g>
        <path d="M12,14c1.66,0,3-1.34,3-3V5c0-1.66-1.34-3-3-3S9,3.34,9,5v6C9,12.66,10.34,14,12,14z"/>
        <path d="M17,11c0,2.76-2.24,5-5,5s-5-2.24-5-5H5c0,3.53,2.61,6.43,6,6.92V21h2v-3.08c3.39-0.49,6-3.39,6-6.92H17z"/>
      </g>
    </g>
  </symbol>
  <symbol id="icon-dark-activity" viewBox="0 -960 960 960">
    <path d="M720 0 600-120v-60L316-464q-9 2-18 3t-18 1v-88q50 2 102-21.5t84-58.5l56-62q13-15 30.5-22.5T590-720q38 0 64 26t26 64v230q0 26-9.5 47.5T644-314L500-456v-92q-20 17-43 31t-49 25l252 252h60l120 120L720 0ZM220-140l-60-60 180-180 100 100h-80L220-140Zm380-620q-33 0-56.5-23.5T520-840q0-33 23.5-56.5T600-920q33 0 56.5 23.5T680-840q0 33-23.5 56.5T600-760Z"/>
  </symbol>
  <symbol id="icon-dark-sort" viewBox="0 -960 960 960">
    <path d="M120-240v-80h240v80H120Zm0-200v-80h480v80H120Zm0-200v-80h720v80H120Z"/>
  </symbol>
  <symbol id="icon-dark-back" viewBox="0 -960 960 960">
    <path d="m313-440 224 224-57 56-320-320 320-320 57 56-224 224h487v80H313Z"/>
  </symbol>
  <symbol id="icon-dark-draft" viewBox="0 0 24 24">
    <path d="M0 0h24v24H0V0z" fill="none"/>
    <path d="M3 17.25V21h3.75L17.81 9.94l-3.75-3.75L3 17.25zM5.92 19H5v-.92l9.06-9.06.92.92L5.92 19zM20.71 5.63l-2.34-2.34c-.2-.2-.45-.29-.71-.29s-.51.1-.7.29l-1.83 1.83 3.75 3.75 1.83-1.83c.39-.39.39-1.02 0-1.41z"/>
  </symbol>
  <symbol id="icon-dark-toggle_on" viewBox="0 -960 960 960">
    <path d="M280-240q-100 0-170-70T40-480q0-100 70-170t170-70h400q100 0 170 70t70 170q0 100-70 170t-170 70H280Zm0-80h400q66 0 113-47t47-113q0-66-47-113t-113-47H280q-66 0-113 47t-47 113q0 66 47 113t113 47Zm400-40q50 0 85-35t35-85q0-50-35-85t-85-35q-50 0-85 35t-35 85q0 50 35 85t85 35ZM480-480Z"/>
  </symbol>
  <symbol id="icon-dark-processing" viewBox="0 0 24 24">
    <g>
      <rect fill="none" height="24" width="24"/>
      <path d="M17,12c-2.76,0-5,2.24-5,5s2.24,5,5,5c2.76,0,5-2.24,5-5S19.76,12,17,12z M18.65,19.35l-2.15-2.15V14h1v2.79l1.85,1.85 L18.65,19.35z M18,3h-3.18C14.4,1.84,13.3,1,12,1S9.6,1.84,9.18,3H6C4.9,3,4,3.9,4,5v15c0,1.1,0.9,2,2,2h6.11 c-0.59-0.57-1.07-1.25-1.42-2H6V5h2v3h8V5h2v5.08c0.71,0.1,1.38,0.31,2,0.6V5C20,3.9,19.1,3,18,3z M12,5c-0.55,0-1-0.45-1-1 c0-0.55,0.45-1,1-1c0.55,0,1,0.45,1,1C13,4.55,12.55,5,12,5z"/>
    </g>
  </symbol>
  <symbol id="icon-dark-help" viewBox="0 -960 960 960">
    <path d="M478-240q21 0 35.5-14.5T528-290q0-21-14.5-35.5T478-340q-21 0-35.5 14.5T428-290q0 21 14.5 35.5T478-240Zm-36-154h74q0-33 7.5-52t42.5-52q26-26 41-49.5t15-56.5q0-56-41-86t-97-30q-57 0-92.5 30T342-618l66 26q5-18 22.5-39t53.5-21q32 0 48 17.5t16 38.5q0 20-12 37.5T506-526q-44 39-54 59t-10 73Zm38 314q-83 0-156-31.5T197-197q-54-54-85.5-127T80-480q0-83 31.5-156T197-763q54-54 127-85.5T480-880q83 0 156 31.5T763-763q54 54 85.5 127T880-480q0 83-31.5 156T763-197q-54 54-127 85.5T480-80Zm0-80q134 0 227-93t93-227q0-134-93-227t-227-93q-134 0-227 93t-93 227q0 134 93 227t227 93Zm0-320Z"/>
  </symbol>
  <symbol id="icon-dark-copy" viewBox="0 -960 960 960">
    <path d="M360-240q-33 0-56.5-23.5T280-320v-480q0-33 23.5-56.5T360-880h360q33 0 56.5 23.5T800-800v480q0 33-23.5 56.5T720-240H360Zm0-80h360v-480H360v480ZM200-80q-33 0-56.5-23.5T120-160v-560h80v560h440v80H200Zm160-240v-480 480Z"/>
  </symbol>
  <symbol id="icon-dark-filter_list" viewBox="0 -960 960 960">
    <path d="M400-240v-80h160v80H400ZM240-440v-80h480v80H240ZM120-640v-80h720v80H120Z"/>
  </symbol>
  <symbol id="icon-dark-navigate_before" viewBox="0 0 24 24">
    <path d="M0 0h24v24H0V0z" fill="none"/>
    <path d="M15.61 7.41L14.2 6l-6 6 6 6 1.41-1.41L11.03 12l4.58-4.59z"/>
  </symbol>
  <symbol id="icon-dark-add" viewBox="0 -960 960 960">
    <path d="M440-440H200v-80h240v-240h80v240h240v80H520v240h-80v-240Z"/>
  </symbol>
  <symbol id="icon-dark-accounts" viewBox="0 -960 960 960">
    <path d="M600-120h240v-33q-25-23-56-35t-64-12q-33 0-64 12t-56 35v33Zm120-120q25 0 42.5-17.5T780-300q0-25-17.5-42.5T720-360q-25 0-42.5 17.5T660-300q0 25 17.5 42.5T720-240ZM480-480Zm2-140q-58 0-99 41t-41 99q0 48 27 84t71 50q0-23 .5-44t8.5-38q-14-8-20.5-22t-6.5-30q0-25 17.5-42.5T482-540q15 0 28.5 7.5T533-512q11-5 23-7t24-2h36q-13-43-49.5-71T482-620ZM370-80l-16-128q-13-5-24.5-12T307-235l-119 50L78-375l103-78q-1-7-1-13.5v-27q0-6.5 1-13.5L78-585l110-190 119 50q11-8 23-15t24-12l16-128h220l16 128q13 5 24.5 12t22.5 15l119-50 110 190-85 65H696q-1-5-2-10.5t-3-10.5l86-65-39-68-99 42q-22-23-48.5-38.5T533-694l-13-106h-79l-14 106q-31 8-57.5 23.5T321-633l-99-41-39 68 86 64q-5 15-7 30t-2 32q0 16 2 31t7 30l-86 65 39 68 99-42q24 25 54 42t65 22v184h-70Zm210 40q-25 0-42.5-17.5T520-100v-280q0-25 17.5-42.5T580-440h280q25 0 42.5 17.5T920-380v280q0 25-17.5 42.5T860-40H580Z"/>
  </symbol>
  <symbol id="icon-dark-more_horiz" viewBox="0 -960 960 960">
    <path d="M240-400q-33 0-56.5-23.5T160-480q0-33 23.5-56.5T240-560q33 0 56.5 23.5T320-480q0 33-23.5 56.5T240-400Zm240 0q-33 0-56.5-23.5T400-480q0-33 23.5-56.5T480-560q33 0 56.5 23.5T560-480q0 33-23.5 56.5T480-400Zm240 0q-33 0-56.5-23.5T640-480q0-33 23.5-56.5T720-560q33 0 56.5 23.5T800-480q0 33-23.5 56.5T720-400Z"/>
  </symbol>
  <symbol id="icon-dark-public_off" viewBox="0 -960 960 960">
    <path d="M819-28 701-146q-48 32-103.5 49T480-80q-83 0-156-31.5T197-197q-54-54-85.5-127T80-480q0-62 17-117.5T146-701L27-820l57-57L876-85l-57 57ZM440-162v-78q-33 0-56.5-23.5T360-320v-40L168-552q-3 18-5.5 36t-2.5 36q0 121 79.5 212T440-162Zm374-99-58-58q21-37 32.5-77.5T800-480q0-98-54.5-179T600-776v16q0 33-23.5 56.5T520-680h-80v45L261-814q48-31 103-48.5T480-880q83 0 156 31.5T763-763q54 54 85.5 127T880-480q0 61-17.5 116T814-261Z"/>
  </symbol>
</svg>
